{
.appVersion = "3151";
.formatVersion = 3;
axes = (
{
name = Weight;
tag = wght;
}
);
date = "2022-04-03 17:04:08 +0000";
familyName = "Noto Sans Nag Mundari";
featurePrefixes = (
{
code = "languagesystem DFLT dflt;
languagesystem nagm NAG;";
name = Languagesystems;
}
);
features = (
{
automatic = 1;
code = "";
disabled = 1;
tag = aalt;
},
{
automatic = 1;
code = "";
disabled = 1;
labels = (
{
language = dflt;
value = "Alternate op form";
}
);
tag = ss01;
}
);
fontMaster = (
{
axesValues = (
400
);
customParameters = (
{
name = "Master Icon Glyph Name";
value = "em-nagmundari";
}
);
id = m01;
metricValues = (
{
over = 16;
pos = 1069;
},
{
over = 16;
pos = 714;
},
{
over = 16;
pos = 536;
},
{
over = -16;
},
{
over = -16;
pos = -293;
},
{
over = -16;
}
);
name = Regular;
userData = {
GSOffsetHorizontal = 10;
GSOffsetVertical = 10;
};
},
{
axesValues = (
700
);
customParameters = (
{
name = "Master Icon Glyph Name";
value = "em-nagmundari";
}
);
id = m002;
metricValues = (
{
over = 16;
pos = 1069;
},
{
over = 16;
pos = 714;
},
{
over = 16;
pos = 536;
},
{
over = -16;
},
{
over = -16;
pos = -293;
},
{
over = -16;
}
);
name = Bold;
userData = {
GSOffsetHorizontal = 18;
GSOffsetVertical = 18;
};
}
);
glyphs = (
{
color = 4;
glyphname = "ojod-nagmundari";
lastChange = "2023-02-18 05:04:20 +0000";
layers = (
{
anchors = (
{
name = bottom;
pos = (341,0);
}
);
guides = (
{
angle = 90;
pos = (559,639);
},
{
angle = 90;
pos = (246,639);
},
{
pos = (502,145);
}
);
layerId = m01;
shapes = (
{
closed = 1;
nodes = (
(232,56,o),
(170,100,o),
(170,182,cs),
(170,252,o),
(213,291,o),
(353,407,cs),
(420,462,o),
(444,510,o),
(444,563,cs),
(444,660,o),
(364,730,o),
(268,730,cs),
(169,730,o),
(90,655,o),
(90,557,cs),
(90,459,o),
(172,386,o),
(270,386,cs),
(559,386,l),
(559,456,l),
(287,456,ls),
(213,456,o),
(170,503,o),
(170,557,cs),
(170,611,o),
(213,658,o),
(268,658,cs),
(321,658,o),
(364,615,o),
(364,566,cs),
(364,530,o),
(340,487,o),
(303,459,cs),
(125,324,o),
(90,243,o),
(90,175,cs),
(90,65,o),
(181,-16,o),
(329,-16,cs),
(437,-16,o),
(533,33,o),
(590,91,c),
(538,145,l),
(484,85,o),
(400,56,o),
(329,56,cs)
);
}
);
width = 640;
},
{
anchors = (
{
name = bottom;
pos = (338,0);
}
);
guides = (
{
pos = (588,181);
}
);
layerId = m002;
shapes = (
{
closed = 1;
nodes = (
(163,-16,o),
(60,65,o),
(60,173,cs),
(60,243,o),
(102,324,o),
(280,459,cs),
(317,487,o),
(341,526,o),
(341,558,cs),
(341,596,o),
(308,620,o),
(267,620,cs),
(220,620,o),
(194,589,o),
(194,551,cs),
(194,522,o),
(209,476,o),
(301,476,cs),
(575,476,l),
(575,366,l),
(287,366,ls),
(164,366,o),
(60,434,o),
(60,541,cs),
(60,660,o),
(158,730,o),
(275,730,cs),
(388,730,o),
(471,660,o),
(471,562,cs),
(471,507,o),
(447,464,o),
(380,407,cs),
(250,297,o),
(194,247,o),
(194,188,cs),
(194,124,o),
(261,94,o),
(331,94,cs),
(411,94,o),
(483,127,o),
(546,181,c),
(615,93,l),
(548,38,o),
(467,-16,o),
(331,-16,cs)
);
}
);
width = 655;
}
);
unicode = 124139;
},
{
color = 4;
glyphname = "o-nagmundari";
lastChange = "2023-02-19 02:17:24 +0000";
layers = (
{
anchors = (
{
name = bottom;
pos = (311,0);
},
{
name = top;
pos = (324,714);
},
{
name = vsign;
pos = (490,714);
}
);
guides = (
{
pos = (405,838);
},
{
pos = (400,1015);
},
{
angle = 90;
pos = (123,175);
},
{
angle = 90;
pos = (556,175);
}
);
layerId = m01;
shapes = (
{
closed = 1;
nodes = (
(456,-16,o),
(574,71,o),
(574,188,cs),
(574,308,o),
(447,370,o),
(347,384,c),
(347,347,l),
(439,369,o),
(548,429,o),
(548,534,cs),
(548,644,o),
(451,730,o),
(314,730,cs),
(254,730,o),
(174,714,o),
(91,675,c),
(119,610,l),
(210,655,o),
(281,658,o),
(310,658,cs),
(409,658,o),
(468,600,o),
(468,531,cs),
(468,468,o),
(399,401,o),
(280,401,cs),
(222,401,l),
(222,329,l),
(304,329,ls),
(390,329,o),
(494,276,o),
(494,185,cs),
(494,121,o),
(431,56,o),
(306,56,cs),
(235,56,o),
(146,85,o),
(92,145,c),
(40,91,l),
(97,33,o),
(198,-16,o),
(306,-16,cs)
);
}
);
width = 634;
},
{
anchors = (
{
name = bottom;
pos = (319,0);
},
{
name = top;
pos = (332,714);
},
{
name = vsign;
pos = (510,714);
}
);
layerId = m002;
shapes = (
{
closed = 1;
nodes = (
(498,-16,o),
(613,72,o),
(613,189,cs),
(613,298,o),
(507,374,o),
(365,384,c),
(365,347,l),
(482,372,o),
(583,423,o),
(583,539,cs),
(583,668,o),
(457,730,o),
(331,730,cs),
(256,730,o),
(165,708,o),
(95,669,c),
(137,572,l),
(220,614,o),
(285,620,o),
(317,620,cs),
(390,620,o),
(449,587,o),
(449,525,cs),
(449,462,o),
(387,420,o),
(289,420,cs),
(221,420,l),
(221,311,l),
(322,311,ls),
(408,311,o),
(479,267,o),
(479,201,cs),
(479,134,o),
(412,94,o),
(324,94,cs),
(256,94,o),
(174,123,o),
(113,175,c),
(40,87,l),
(103,35,o),
(200,-16,o),
(324,-16,cs)
);
}
);
width = 663;
}
);
unicode = 124112;
},
{
color = 4;
glyphname = "op-nagmundari";
lastChange = "2023-02-19 01:56:19 +0000";
layers = (
{
anchors = (
{
name = bottom;
pos = (366,0);
},
{
name = top;
pos = (402,714);
}
);
layerId = m01;
shapes = (
{
closed = 1;
nodes = (
(296,60,l),
(296,254,l),
(216,254,l),
(216,132,l),
(178,132,l),
(109,279,l),
(570,279,l),
(570,351,l),
(30,351,l),
(30,280,l),
(142,60,l)
);
},
{
closed = 1;
nodes = (
(634,0,l),
(634,714,l),
(554,714,l),
(554,0,l)
);
},
{
closed = 1;
nodes = (
(296,207,l),
(296,714,l),
(216,714,l),
(216,207,l)
);
}
);
width = 754;
},
{
anchors = (
{
name = bottom;
pos = (386,0);
},
{
name = top;
pos = (389,714);
}
);
layerId = m002;
shapes = (
{
closed = 1;
nodes = (
(370,60,l),
(370,254,l),
(236,254,l),
(236,147,l),
(206,147,l),
(150,267,l),
(590,267,l),
(590,372,l),
(40,372,l),
(40,280,l),
(162,60,l)
);
},
{
closed = 1;
nodes = (
(681,0,l),
(681,714,l),
(547,714,l),
(547,0,l)
);
},
{
closed = 1;
nodes = (
(370,207,l),
(370,714,l),
(236,714,l),
(236,207,l)
);
}
);
width = 759;
}
);
unicode = 124113;
},
{
color = 4;
glyphname = "ol-nagmundari";
lastChange = "2023-02-17 18:24:49 +0000";
layers = (
{
anchors = (
{
name = bottom;
pos = (379,0);
},
{
name = top;
pos = (376,714);
}
);
layerId = m01;
shapes = (
{
closed = 1;
nodes = (
(535,658,o),
(564,538,o),
(564,460,cs),
(564,0,l),
(644,0,l),
(644,467,ls),
(644,558,o),
(597,730,o),
(376,730,cs),
(155,730,o),
(108,558,o),
(108,467,cs),
(108,0,l),
(188,0,l),
(188,460,ls),
(188,538,o),
(217,658,o),
(376,658,cs)
);
}
);
width = 752;
},
{
anchors = (
{
name = bottom;
pos = (368,0);
},
{
name = top;
pos = (365,714);
}
);
layerId = m002;
shapes = (
{
closed = 1;
nodes = (
(504,620,o),
(526,508,o),
(526,420,cs),
(526,0,l),
(660,0,l),
(660,447,ls),
(660,568,o),
(586,730,o),
(365,730,cs),
(144,730,o),
(70,568,o),
(70,447,cs),
(70,0,l),
(204,0,l),
(204,420,ls),
(204,508,o),
(226,620,o),
(365,620,cs)
);
}
);
width = 730;
}
);
unicode = 124114;
},
{
color = 4;
glyphname = "oy-nagmundari";
lastChange = "2023-02-18 05:06:11 +0000";
layers = (
{
anchors = (
{
name = bottom;
pos = (331,0);
},
{
name = top;
pos = (369,714);
}
);
layerId = m01;
shapes = (
{
closed = 1;
nodes = (
(499,-16,o),
(611,51,o),
(672,118,c),
(622,169,l),
(551,95,o),
(460,56,o),
(352,56,cs),
(225,56,o),
(157,110,o),
(157,172,cs),
(157,237,o),
(230,258,o),
(352,287,cs),
(503,323,o),
(667,368,o),
(667,547,cs),
(667,685,o),
(569,730,o),
(507,730,cs),
(455,730,o),
(385,699,o),
(345,615,c),
(396,615,l),
(351,708,o),
(272,730,o),
(220,730,cs),
(140,730,o),
(70,679,o),
(70,588,cs),
(70,530,o),
(99,471,o),
(128,437,c),
(198,476,l),
(171,512,o),
(150,544,o),
(150,582,cs),
(150,628,o),
(176,658,o),
(225,658,cs),
(277,658,o),
(329,627,o),
(329,536,cs),
(329,496,l),
(409,496,l),
(409,535,ls),
(409,616,o),
(446,658,o),
(502,658,cs),
(563,658,o),
(587,608,o),
(587,548,cs),
(587,408,o),
(457,381,o),
(331,355,cs),
(193,327,o),
(77,288,o),
(77,175,cs),
(77,74,o),
(170,-16,o),
(347,-16,cs)
);
}
);
width = 732;
},
{
anchors = (
{
name = bottom;
pos = (356,0);
},
{
name = top;
pos = (394,714);
}
);
background = {
shapes = (
{
closed = 0;
nodes = (
(471,94,ls),
(539,94,o),
(621,123,o),
(682,175,c),
(755,87,l),
(692,35,o),
(595,-16,o),
(471,-16,cs)
);
}
);
};
guides = (
{
angle = 90;
pos = (719,222);
}
);
layerId = m002;
shapes = (
{
closed = 1;
nodes = (
(536,-16,o),
(649,44,o),
(743,136,c),
(661,221,l),
(595,147,o),
(498,94,o),
(379,94,cs),
(301,94,o),
(209,117,o),
(209,170,cs),
(209,213,o),
(270,230,o),
(381,261,cs),
(536,304,o),
(719,378,o),
(719,546,cs),
(719,671,o),
(618,730,o),
(536,730,cs),
(465,730,o),
(391,686,o),
(370,615,c),
(421,615,l),
(376,708,o),
(299,730,o),
(237,730,cs),
(149,730,o),
(65,686,o),
(65,581,cs),
(65,519,o),
(95,462,o),
(141,422,c),
(240,488,l),
(210,521,o),
(195,540,o),
(195,568,cs),
(195,612,o),
(231,620,o),
(255,620,cs),
(300,620,o),
(327,591,o),
(327,536,cs),
(327,496,l),
(461,496,l),
(461,539,ls),
(461,576,o),
(478,620,o),
(522,620,cs),
(560,620,o),
(585,586,o),
(585,540,cs),
(585,453,o),
(496,428,o),
(360,391,cs),
(227,355,o),
(75,311,o),
(75,175,cs),
(75,39,o),
(226,-16,o),
(378,-16,cs)
);
}
);
width = 785;
}
);
unicode = 124115;
},
{
color = 4;
glyphname = "ong-nagmundari";
lastChange = "2023-02-18 05:07:13 +0000";
layers = (
{
anchors = (
{
name = bottom;
pos = (336,0);
},
{
name = top;
pos = (346,714);
}
);
layerId = m01;
shapes = (
{
closed = 1;
nodes = (
(198,-16,o),
(60,122,o),
(60,353,cs),
(60,591,o),
(212,730,o),
(378,730,cs),
(503,730,o),
(605,647,o),
(605,520,cs),
(605,374,o),
(472,332,o),
(338,332,cs),
(117,332,l),
(117,404,l),
(342,404,ls),
(472,404,o),
(525,440,o),
(525,518,cs),
(525,615,o),
(446,658,o),
(381,658,cs),
(292,658,o),
(140,585,o),
(140,358,cs),
(140,162,o),
(249,56,o),
(374,56,cs),
(448,56,o),
(513,76,o),
(578,145,c),
(630,91,l),
(581,38,o),
(484,-16,o),
(373,-16,cs)
);
}
);
width = 685;
},
{
anchors = (
{
name = bottom;
pos = (363,0);
},
{
name = top;
pos = (373,714);
}
);
guides = (
{
angle = 90;
pos = (659,245);
}
);
layerId = m002;
shapes = (
{
closed = 1;
nodes = (
(212,-16,o),
(60,119,o),
(60,345,cs),
(60,584,o),
(229,730,o),
(410,730,cs),
(543,730,o),
(659,652,o),
(659,515,cs),
(659,377,o),
(543,313,o),
(391,313,cs),
(144,313,l),
(144,423,l),
(379,423,ls),
(421,423,o),
(525,433,o),
(525,523,cs),
(525,584,o),
(476,620,o),
(409,620,cs),
(319,620,o),
(194,555,o),
(194,351,cs),
(194,152,o),
(313,94,o),
(408,94,cs),
(488,94,o),
(560,127,o),
(623,181,c),
(692,93,l),
(625,38,o),
(542,-16,o),
(406,-16,cs)
);
}
);
width = 725;
}
);
unicode = 124116;
},
{
color = 4;
glyphname = "a-nagmundari";
lastChange = "2023-02-19 02:17:14 +0000";
layers = (
{
anchors = (
{
name = bottom;
pos = (286,0);
},
{
name = top;
pos = (389,714);
},
{
name = vsign;
pos = (510,714);
}
);
layerId = m01;
shapes = (
{
closed = 1;
nodes = (
(419,-16,o),
(543,74,o),
(543,208,cs),
(543,320,o),
(482,423,o),
(369,439,c),
(374,397,l),
(470,414,o),
(507,491,o),
(507,554,cs),
(507,686,o),
(389,730,o),
(293,730,cs),
(233,730,o),
(154,711,o),
(92,676,c),
(118,610,l),
(201,652,o),
(264,658,o),
(293,658,cs),
(365,658,o),
(427,614,o),
(427,551,cs),
(427,510,o),
(396,464,o),
(283,464,cs),
(209,464,l),
(209,392,l),
(283,392,ls),
(436,392,o),
(463,276,o),
(463,208,cs),
(463,114,o),
(385,56,o),
(279,56,cs),
(196,56,o),
(140,101,o),
(140,149,cs),
(140,193,o),
(171,202,o),
(219,202,cs),
(623,202,l),
(623,0,l),
(703,0,l),
(703,272,l),
(217,272,ls),
(135,272,o),
(60,234,o),
(60,149,cs),
(60,63,o),
(143,-16,o),
(279,-16,cs)
);
}
);
width = 753;
},
{
anchors = (
{
name = bottom;
pos = (310,0);
},
{
name = top;
pos = (413,714);
},
{
name = vsign;
pos = (570,714);
}
);
layerId = m002;
shapes = (
{
closed = 1;
nodes = (
(476,-16,o),
(594,88,o),
(594,216,cs),
(594,331,o),
(506,423,o),
(393,439,c),
(398,397,l),
(499,416,o),
(564,464,o),
(564,549,cs),
(564,664,o),
(444,730,o),
(321,730,cs),
(250,730,o),
(166,708,o),
(96,669,c),
(138,572,l),
(221,614,o),
(280,620,o),
(310,620,cs),
(365,620,o),
(430,599,o),
(430,541,cs),
(430,517,o),
(419,478,o),
(307,478,cs),
(233,478,l),
(233,378,l),
(287,378,ls),
(435,378,o),
(460,283,o),
(460,226,cs),
(460,146,o),
(402,84,o),
(293,84,cs),
(209,84,o),
(165,119,o),
(165,151,cs),
(165,177,o),
(184,192,o),
(214,192,cs),
(632,192,l),
(632,0,l),
(752,0,l),
(752,282,l),
(227,282,ls),
(203,282,o),
(60,281,o),
(60,158,cs),
(60,36,o),
(185,-16,o),
(308,-16,cs)
);
}
);
width = 802;
}
);
unicode = 124117;
},
{
color = 4;
glyphname = "aj-nagmundari";
lastChange = "2023-02-19 01:56:33 +0000";
layers = (
{
anchors = (
{
name = bottom;
pos = (412,0);
},
{
name = top;
pos = (435,714);
}
);
layerId = m01;
shapes = (
{
closed = 1;
nodes = (
(345,714,l),
(345,423,ls),
(345,318,o),
(282,274,o),
(244,274,cs),
(208,274,o),
(146,299,o),
(146,395,cs),
(146,714,l),
(66,714,l),
(66,399,ls),
(66,241,o),
(176,202,o),
(234,202,cs),
(300,202,o),
(374,233,o),
(403,340,c),
(361,340,l),
(377,272,o),
(438,202,o),
(525,202,cs),
(587,202,o),
(652,250,o),
(674,318,c),
(643,330,l),
(643,0,l),
(723,0,l),
(723,714,l),
(643,714,l),
(643,394,l),
(634,333,o),
(579,274,o),
(531,274,cs),
(477,274,o),
(425,322,o),
(425,423,cs),
(425,714,l)
);
}
);
width = 833;
},
{
anchors = (
{
name = bottom;
pos = (376,0);
},
{
name = top;
pos = (399,714);
}
);
layerId = m002;
shapes = (
{
closed = 1;
nodes = (
(329,714,l),
(329,390,ls),
(329,343,o),
(297,294,o),
(253,294,cs),
(207,294,o),
(184,326,o),
(184,395,cs),
(184,714,l),
(50,714,l),
(50,390,ls),
(50,204,o),
(192,184,o),
(243,184,cs),
(314,184,o),
(399,232,o),
(414,322,c),
(362,322,l),
(378,254,o),
(442,184,o),
(529,184,cs),
(601,184,o),
(663,233,o),
(685,326,c),
(627,312,l),
(627,0,l),
(761,0,l),
(761,714,l),
(627,714,l),
(627,390,l),
(623,351,o),
(599,294,o),
(541,294,cs),
(487,294,o),
(463,351,o),
(463,415,cs),
(463,714,l)
);
}
);
width = 841;
}
);
unicode = 124118;
},
{
color = 4;
glyphname = "ab-nagmundari";
lastChange = "2023-02-19 01:16:36 +0000";
layers = (
{
anchors = (
{
name = bottom;
pos = (345,0);
},
{
name = top;
pos = (338,714);
}
);
guides = (
{
angle = 90;
pos = (359,72);
},
{
angle = 90;
pos = (196,72);
}
);
layerId = m01;
shapes = (
{
closed = 1;
nodes = (
(284,320,l),
(199,349,o),
(154,407,o),
(154,480,cs),
(154,589,o),
(256,658,o),
(357,658,cs),
(419,658,o),
(506,632,o),
(564,530,c),
(627,568,l),
(563,681,o),
(462,730,o),
(356,730,cs),
(189,730,o),
(74,607,o),
(74,478,cs),
(74,377,o),
(145,292,o),
(228,263,c)
);
},
{
closed = 1;
nodes = (
(451,-14,o),
(533,71,o),
(533,176,cs),
(533,281,o),
(451,366,o),
(346,366,cs),
(241,366,o),
(159,281,o),
(159,176,cs),
(159,71,o),
(241,-14,o),
(346,-14,cs)
);
},
{
closed = 1;
nodes = (
(285,58,o),
(234,108,o),
(234,176,cs),
(234,243,o),
(285,294,o),
(346,294,cs),
(407,294,o),
(458,244,o),
(458,176,cs),
(458,107,o),
(407,58,o),
(346,58,cs)
);
},
{
closed = 1;
nodes = (
(437,408,l),
(396,457,l),
(45,179,l),
(85,129,l)
);
}
);
width = 667;
},
{
anchors = (
{
name = bottom;
pos = (375,0);
},
{
name = top;
pos = (368,714);
}
);
layerId = m002;
shapes = (
{
closed = 1;
nodes = (
(341,320,l),
(256,349,o),
(211,407,o),
(211,478,cs),
(211,583,o),
(308,620,o),
(383,620,cs),
(429,620,o),
(512,607,o),
(586,492,c),
(678,548,l),
(614,676,o),
(507,730,o),
(385,730,cs),
(201,730,o),
(77,607,o),
(77,476,cs),
(77,377,o),
(148,292,o),
(231,263,c)
);
},
{
closed = 1;
nodes = (
(488,-16,o),
(583,53,o),
(583,173,cs),
(583,298,o),
(481,366,o),
(378,366,cs),
(271,366,o),
(169,293,o),
(169,170,cs),
(169,56,o),
(258,-16,o),
(374,-16,cs)
);
},
{
closed = 1;
nodes = (
(325,83,o),
(294,119,o),
(294,174,cs),
(294,237,o),
(335,264,o),
(379,264,cs),
(417,264,o),
(458,244,o),
(458,177,cs),
(458,119,o),
(428,83,o),
(377,83,cs)
);
},
{
closed = 1;
nodes = (
(477,398,l),
(416,467,l),
(65,189,l),
(125,119,l)
);
}
);
width = 718;
}
);
note = "Sould the loop be enlarged?";
unicode = 124119;
},
{
color = 4;
glyphname = "any-nagmundari";
lastChange = "2023-02-18 06:48:07 +0000";
layers = (
{
anchors = (
{
name = bottom;
pos = (276,0);
},
{
name = top;
pos = (292,714);
}
);
layerId = m01;
shapes = (
{
closed = 1;
nodes = (
(162,730,o),
(50,635,o),
(50,484,cs),
(50,326,o),
(174,249,o),
(283,249,cs),
(326,249,o),
(382,261,o),
(435,313,c),
(403,316,l),
(403,35,l),
(483,-16,l),
(657,107,l),
(619,162,l),
(453,45,l),
(483,45,l),
(483,537,ls),
(483,684,o),
(383,730,o),
(292,730,cs)
);
},
{
closed = 1;
nodes = (
(130,614,o),
(230,658,o),
(288,658,cs),
(326,658,o),
(403,639,o),
(403,537,cs),
(403,362,l),
(382,346,o),
(336,321,o),
(288,321,cs),
(224,321,o),
(130,366,o),
(130,488,cs)
);
}
);
width = 682;
},
{
anchors = (
{
name = bottom;
pos = (304,0);
},
{
name = top;
pos = (320,714);
}
);
layerId = m002;
shapes = (
{
closed = 1;
nodes = (
(178,730,o),
(50,638,o),
(50,474,cs),
(50,298,o),
(191,230,o),
(295,230,cs),
(338,230,o),
(410,242,o),
(463,294,c),
(403,316,l),
(403,35,l),
(537,-16,l),
(710,95,l),
(655,179,l),
(513,90,l),
(537,82,l),
(537,493,ls),
(537,686,o),
(413,730,o),
(308,730,cs)
);
},
{
closed = 1;
nodes = (
(184,587,o),
(248,620,o),
(306,620,cs),
(360,620,o),
(403,582,o),
(403,480,cs),
(403,378,l),
(384,358,o),
(348,340,o),
(306,340,cs),
(258,340,o),
(184,366,o),
(184,488,cs)
);
}
);
width = 730;
}
);
unicode = 124120;
},
{
color = 4;
glyphname = "ah-nagmundari";
lastChange = "2023-02-19 02:00:33 +0000";
layers = (
{
anchors = (
{
name = bottom;
pos = (427,0);
},
{
name = top;
pos = (413,714);
}
);
layerId = m01;
shapes = (
{
closed = 1;
nodes = (
(610,-16,o),
(680,157,o),
(680,337,cs),
(680,530,o),
(600,730,o),
(454,730,cs),
(379,730,o),
(310,677,o),
(310,576,cs),
(310,447,o),
(422,336,o),
(612,336,c),
(612,402,l),
(490,402,o),
(390,464,o),
(390,575,cs),
(390,632,o),
(417,658,o),
(450,658,cs),
(516,658,o),
(600,552,o),
(600,344,cs),
(600,103,o),
(487,56,o),
(406,56,cs),
(328,56,o),
(250,100,o),
(250,208,cs),
(250,246,o),
(259,281,o),
(280,340,c),
(226,387,l),
(24,264,l),
(64,207,l),
(223,306,l),
(205,336,l),
(184,291,o),
(170,259,o),
(170,206,cs),
(170,90,o),
(241,-16,o),
(403,-16,cs)
);
}
);
width = 740;
},
{
anchors = (
{
name = bottom;
pos = (450,0);
},
{
name = top;
pos = (436,714);
}
);
layerId = m002;
shapes = (
{
closed = 1;
nodes = (
(631,-16,o),
(730,157,o),
(730,337,cs),
(730,552,o),
(642,730,o),
(470,730,cs),
(395,730,o),
(306,684,o),
(306,563,cs),
(306,434,o),
(445,307,o),
(635,307,c),
(635,422,l),
(513,422,o),
(440,486,o),
(440,566,cs),
(440,593,o),
(449,628,o),
(483,628,cs),
(536,628,o),
(596,552,o),
(596,344,cs),
(596,166,o),
(510,94,o),
(429,94,cs),
(351,94,o),
(300,138,o),
(300,208,cs),
(300,246,o),
(309,281,o),
(330,340,c),
(249,387,l),
(20,264,l),
(66,175,l),
(252,274,l),
(201,336,l),
(180,291,o),
(166,259,o),
(166,206,cs),
(166,90,o),
(268,-16,o),
(424,-16,cs)
);
}
);
width = 790;
}
);
unicode = 124121;
},
{
color = 4;
glyphname = "i-nagmundari";
lastChange = "2023-02-19 02:16:56 +0000";
layers = (
{
anchors = (
{
name = bottom;
pos = (386,0);
},
{
name = top;
pos = (379,714);
},
{
name = vsign;
pos = (640,714);
}
);
layerId = m01;
shapes = (
{
closed = 1;
nodes = (
(431,561,l),
(411,542,o),
(358,513,o),
(291,513,cs),
(221,513,o),
(189,544,o),
(189,617,cs),
(189,715,l),
(109,715,l),
(109,617,ls),
(109,498,o),
(187,437,o),
(287,437,cs),
(353,437,o),
(406,464,o),
(436,490,c)
);
},
{
closed = 1;
nodes = (
(330,187,ls),
(306,93,o),
(272,56,o),
(215,56,cs),
(162,56,o),
(140,87,o),
(140,124,cs),
(140,211,o),
(261,275,o),
(401,275,cs),
(530,275,o),
(715,221,o),
(715,129,cs),
(715,92,o),
(686,56,o),
(646,56,cs),
(608,56,o),
(571,89,o),
(571,146,cs),
(571,228,o),
(649,341,o),
(684,391,c),
(616,433,l),
(579,377,o),
(501,258,o),
(501,146,cs),
(501,36,o),
(575,-16,o),
(645,-16,cs),
(724,-16,o),
(785,52,o),
(785,128,cs),
(785,250,o),
(631,347,o),
(416,347,cs),
(206,347,o),
(60,254,o),
(60,127,cs),
(60,50,o),
(113,-16,o),
(212,-16,cs),
(289,-16,o),
(370,24,o),
(404,155,cs),
(549,714,l),
(466,714,l)
);
}
);
width = 830;
},
{
anchors = (
{
name = bottom;
pos = (416,0);
},
{
name = top;
pos = (409,714);
},
{
name = vsign;
pos = (680,714);
}
);
layerId = m002;
shapes = (
{
closed = 1;
nodes = (
(444,616,l),
(429,588,o),
(370,533,o),
(318,533,cs),
(266,533,o),
(240,559,o),
(240,626,cs),
(240,715,l),
(106,715,l),
(106,647,ls),
(106,455,o),
(211,423,o),
(292,423,cs),
(370,423,o),
(426,471,o),
(449,511,c)
);
},
{
closed = 1;
nodes = (
(337,210,ls),
(312,114,o),
(271,84,o),
(233,84,cs),
(195,84,o),
(180,116,o),
(180,137,cs),
(180,198,o),
(263,257,o),
(436,257,cs),
(577,257,o),
(735,217,o),
(735,137,cs),
(735,100,o),
(708,84,o),
(685,84,cs),
(656,84,o),
(630,106,o),
(630,144,cs),
(630,229,o),
(698,331,o),
(733,381,c),
(638,443,l),
(602,388,o),
(520,259,o),
(520,144,cs),
(520,36,o),
(603,-16,o),
(682,-16,cs),
(792,-16,o),
(845,54,o),
(845,137,cs),
(845,258,o),
(699,367,o),
(436,367,cs),
(216,367,o),
(60,254,o),
(60,130,cs),
(60,41,o),
(126,-16,o),
(232,-16,cs),
(339,-16,o),
(429,37,o),
(470,193,cs),
(608,714,l),
(469,714,l)
);
}
);
width = 890;
}
);
unicode = 124122;
},
{
color = 4;
glyphname = "is-nagmundari";
lastChange = "2023-02-18 06:47:35 +0000";
layers = (
{
anchors = (
{
name = bottom;
pos = (331,0);
},
{
name = top;
pos = (424,714);
}
);
layerId = m01;
shapes = (
{
closed = 1;
nodes = (
(593,0,l),
(673,0,l),
(673,714,l),
(593,714,l)
);
},
{
closed = 1;
nodes = (
(150,614,o),
(212,658,o),
(284,658,cs),
(313,658,o),
(376,652,o),
(459,610,c),
(485,676,l),
(423,711,o),
(344,730,o),
(284,730,cs),
(188,730,o),
(70,680,o),
(70,554,cs),
(70,449,o),
(159,409,o),
(251,387,c),
(251,424,l),
(151,410,o),
(70,358,o),
(70,248,c),
(70,131,o),
(168,64,o),
(306,64,cs),
(481,64,o),
(603,228,o),
(663,348,c),
(596,393,l),
(559,292,o),
(447,136,o),
(300,136,cs),
(199,136,o),
(150,180,o),
(150,249,cs),
(150,324,o),
(208,369,o),
(294,369,cs),
(375,369,l),
(375,441,l),
(318,441,ls),
(199,441,o),
(150,488,o),
(150,551,cs)
);
}
);
width = 793;
},
{
anchors = (
{
name = bottom;
pos = (348,0);
},
{
name = top;
pos = (441,714);
}
);
layerId = m002;
shapes = (
{
closed = 1;
nodes = (
(583,0,l),
(717,0,l),
(717,714,l),
(583,714,l)
);
},
{
closed = 1;
nodes = (
(194,586,o),
(229,620,o),
(301,620,cs),
(330,620,o),
(393,614,o),
(476,572,c),
(516,671,l),
(434,712,o),
(362,730,o),
(298,730,cs),
(190,730,o),
(60,680,o),
(60,554,cs),
(60,449,o),
(149,397,o),
(268,387,c),
(268,424,l),
(154,417,o),
(60,358,o),
(60,247,cs),
(60,126,o),
(172,56,o),
(308,56,cs),
(502,56,o),
(619,199,o),
(687,358,c),
(613,423,l),
(574,321,o),
(470,166,o),
(308,166,cs),
(219,166,o),
(194,213,o),
(194,251,cs),
(194,298,o),
(234,350,o),
(330,350,cs),
(392,350,l),
(392,460,l),
(344,460,ls),
(255,460,o),
(194,492,o),
(194,546,cs)
);
}
);
width = 795;
}
);
metricRight = "op-nagmundari";
unicode = 124123;
},
{
color = 4;
glyphname = "idd-nagmundari";
lastChange = "2023-02-18 16:19:03 +0000";
layers = (
{
anchors = (
{
name = bottom;
pos = (402,0);
},
{
name = top;
pos = (408,714);
}
);
layerId = m01;
shapes = (
{
closed = 1;
nodes = (
(595,-16,o),
(695,169,o),
(695,361,cs),
(695,585,o),
(615,730,o),
(462,730,cs),
(398,730,o),
(325,677,o),
(325,578,cs),
(325,446,o),
(437,306,o),
(627,306,c),
(627,372,l),
(506,372,o),
(405,462,o),
(405,578,cs),
(405,629,o),
(432,658,o),
(463,658,cs),
(514,658,o),
(615,634,o),
(615,362,cs),
(615,115,o),
(477,56,o),
(404,56,cs),
(271,56,o),
(188,179,o),
(188,402,cs),
(188,714,l),
(108,714,l),
(108,402,ls),
(108,107,o),
(248,-16,o),
(402,-16,cs)
);
}
);
width = 773;
},
{
anchors = (
{
name = bottom;
pos = (391,0);
},
{
name = top;
pos = (397,714);
}
);
layerId = m002;
shapes = (
{
closed = 1;
nodes = (
(568,-16,o),
(712,132,o),
(712,368,cs),
(712,556,o),
(624,730,o),
(456,730,cs),
(363,730,o),
(288,671,o),
(288,554,cs),
(288,415,o),
(422,277,o),
(617,277,c),
(617,392,l),
(500,392,o),
(415,476,o),
(415,556,cs),
(415,601,o),
(433,628,o),
(465,628,cs),
(525,628,o),
(578,524,o),
(578,368,cs),
(578,148,o),
(465,94,o),
(383,94,cs),
(279,94,o),
(207,156,o),
(207,381,cs),
(207,714,l),
(70,714,l),
(70,381,ls),
(70,80,o),
(223,-16,o),
(391,-16,cs)
);
}
);
width = 762;
}
);
unicode = 124124;
},
{
color = 4;
glyphname = "it-nagmundari";
lastChange = "2023-02-18 17:17:05 +0000";
layers = (
{
anchors = (
{
name = bottom;
pos = (390,0);
},
{
name = top;
pos = (390,714);
}
);
layerId = m01;
shapes = (
{
closed = 1;
nodes = (
(525,-16,o),
(682,90,o),
(682,367,cs),
(682,589,o),
(546,730,o),
(390,730,cs),
(242,730,o),
(98,589,o),
(98,367,cs),
(98,90,o),
(257,-16,o),
(389,-16,cs)
);
},
{
closed = 1;
nodes = (
(734,354,l),
(734,411,l),
(45,411,l),
(45,354,l)
);
},
{
closed = 1;
nodes = (
(319,56,o),
(178,107,o),
(178,367,cs),
(178,585,o),
(311,658,o),
(390,658,cs),
(484,658,o),
(602,585,o),
(602,367,cs),
(602,107,o),
(463,56,o),
(389,56,cs)
);
}
);
width = 779;
},
{
anchors = (
{
name = bottom;
pos = (403,0);
},
{
name = top;
pos = (403,714);
}
);
guides = (
{
angle = 90;
pos = (776,484);
}
);
layerId = m002;
shapes = (
{
closed = 1;
nodes = (
(558,-16,o),
(716,109,o),
(716,359,cs),
(716,591,o),
(579,730,o),
(406,730,cs),
(235,730,o),
(90,595,o),
(90,359,cs),
(90,114,o),
(245,-16,o),
(403,-16,cs)
);
},
{
closed = 1;
nodes = (
(776,347,l),
(776,417,l),
(30,417,l),
(30,347,l)
);
},
{
closed = 1;
nodes = (
(325,94,o),
(218,158,o),
(218,360,cs),
(218,561,o),
(324,620,o),
(408,620,cs),
(497,620,o),
(588,555,o),
(588,363,cs),
(588,150,o),
(476,94,o),
(403,94,cs)
);
}
);
width = 806;
}
);
unicode = 124125;
},
{
color = 4;
glyphname = "ih-nagmundari";
lastChange = "2023-02-19 02:02:49 +0000";
layers = (
{
anchors = (
{
name = bottom;
pos = (303,0);
},
{
name = top;
pos = (305,714);
}
);
layerId = m01;
shapes = (
{
closed = 1;
nodes = (
(444,-16,o),
(534,62,o),
(534,179,cs),
(534,275,o),
(475,347,o),
(404,418,cs),
(91,729,l),
(35,672,l),
(336,373,ls),
(411,298,o),
(454,240,o),
(454,179,cs),
(454,123,o),
(405,56,o),
(304,56,cs),
(203,56,o),
(154,123,o),
(154,179,cs),
(154,240,o),
(197,298,o),
(272,373,cs),
(573,672,l),
(517,729,l),
(204,418,ls),
(133,347,o),
(74,275,o),
(74,179,cs),
(74,62,o),
(164,-16,o),
(304,-16,cs)
);
}
);
width = 608;
},
{
anchors = (
{
name = bottom;
pos = (340,0);
},
{
name = top;
pos = (342,714);
}
);
layerId = m002;
shapes = (
{
closed = 1;
nodes = (
(481,-16,o),
(598,59,o),
(598,182,cs),
(598,270,o),
(538,353,o),
(468,418,cs),
(132,730,l),
(35,633,l),
(326,373,ls),
(411,297,o),
(463,227,o),
(463,175,cs),
(463,121,o),
(408,94,o),
(341,94,cs),
(274,94,o),
(219,121,o),
(219,175,cs),
(219,227,o),
(271,297,o),
(356,373,cs),
(647,633,l),
(550,730,l),
(214,418,ls),
(144,353,o),
(84,270,o),
(84,182,cs),
(84,59,o),
(201,-16,o),
(341,-16,cs)
);
}
);
width = 682;
}
);
note = "Straighten the vertical stroke";
unicode = 124126;
},
{
color = 4;
glyphname = "u-nagmundari";
lastChange = "2023-02-19 02:16:41 +0000";
layers = (
{
anchors = (
{
name = bottom;
pos = (314,0);
},
{
name = top;
pos = (317,714);
},
{
name = vsign;
pos = (520,714);
}
);
guides = (
{
pos = (187,145);
},
{
pos = (92,422);
},
{
angle = 90;
pos = (89,508);
}
);
layerId = m01;
shapes = (
{
closed = 1;
nodes = (
(396,658,o),
(521,585,o),
(521,367,cs),
(521,107,o),
(385,56,o),
(291,56,cs),
(210,56,o),
(143,85,o),
(89,145,c),
(37,91,l),
(94,33,o),
(173,-16,o),
(291,-16,cs),
(447,-16,o),
(601,80,o),
(601,367,cs),
(601,609,o),
(458,730,o),
(302,730,cs),
(232,730,o),
(161,713,o),
(89,675,c),
(117,610,l),
(206,652,o),
(257,658,o),
(302,658,cs)
);
}
);
width = 671;
},
{
anchors = (
{
name = bottom;
pos = (341,0);
},
{
name = top;
pos = (344,714);
},
{
name = vsign;
pos = (570,714);
}
);
guides = (
{
angle = 90;
pos = (88,410);
},
{
angle = 90;
pos = (325,772);
}
);
layerId = m002;
shapes = (
{
closed = 1;
nodes = (
(495,-16,o),
(654,107,o),
(654,360,cs),
(654,624,o),
(481,730,o),
(323,730,cs),
(251,730,o),
(155,708,o),
(85,669,c),
(127,572,l),
(192,605,o),
(254,621,o),
(314,621,cs),
(417,621,o),
(520,573,o),
(520,364,cs),
(520,147,o),
(410,94,o),
(313,94,cs),
(240,94,o),
(174,124,o),
(118,185,c),
(45,97,l),
(119,29,o),
(205,-16,o),
(314,-16,cs)
);
}
);
width = 709;
}
);
unicode = 124127;
},
{
color = 4;
glyphname = "uc-nagmundari";
lastChange = "2023-02-19 01:48:58 +0000";
layers = (
{
anchors = (
{
name = bottom;
pos = (370,0);
},
{
name = top;
pos = (353,714);
}
);
layerId = m01;
shapes = (
{
closed = 1;
nodes = (
(634,-16,o),
(704,33,o),
(752,91,c),
(705,145,l),
(649,85,o),
(604,56,o),
(549,56,cs),
(469,56,o),
(429,115,o),
(429,188,cs),
(429,283,o),
(503,367,o),
(624,428,c),
(615,500,l),
(213,500,ls),
(126,500,o),
(110,552,o),
(110,588,cs),
(110,634,o),
(137,658,o),
(168,658,cs),
(200,658,o),
(232,633,o),
(232,577,cs),
(232,563,o),
(230,550,o),
(227,536,cs),
(112,0,l),
(192,0,l),
(307,536,ls),
(311,555,o),
(313,572,o),
(313,588,cs),
(313,695,o),
(227,730,o),
(176,730,cs),
(115,730,o),
(30,687,o),
(30,587,cs),
(30,500,o),
(91,428,o),
(213,428,cs),
(558,428,l),
(554,463,l),
(445,417,o),
(349,302,o),
(349,181,cs),
(349,72,o),
(424,-16,o),
(544,-16,cs)
);
}
);
width = 737;
},
{
anchors = (
{
name = bottom;
pos = (349,0);
},
{
name = top;
pos = (332,714);
}
);
layerId = m002;
shapes = (
{
closed = 1;
nodes = (
(672,-16,o),
(731,28,o),
(798,83,c),
(729,171,l),
(674,124,o),
(632,96,o),
(582,96,cs),
(533,96,o),
(491,125,o),
(491,192,cs),
(491,280,o),
(563,353,o),
(675,395,c),
(664,500,l),
(243,500,ls),
(179,500,o),
(148,523,o),
(148,572,cs),
(148,608,o),
(165,629,o),
(193,629,cs),
(227,629,o),
(233,599,o),
(233,577,cs),
(233,563,o),
(231,550,o),
(228,536,cs),
(113,0,l),
(250,0,l),
(365,536,ls),
(369,555,o),
(371,571,o),
(371,587,cs),
(371,695,o),
(276,730,o),
(204,730,cs),
(115,730,o),
(30,678,o),
(30,574,cs),
(30,467,o),
(119,400,o),
(241,400,cs),
(567,400,l),
(563,463,l),
(446,423,o),
(361,304,o),
(361,186,cs),
(361,78,o),
(432,-16,o),
(575,-16,cs)
);
}
);
width = 793;
}
);
unicode = 124128;
},
{
color = 4;
glyphname = "ud-nagmundari";
lastChange = "2023-02-18 06:31:10 +0000";
layers = (
{
anchors = (
{
name = bottom;
pos = (325,0);
},
{
name = top;
pos = (332,714);
}
);
guides = (
{
angle = 90;
pos = (579,268);
}
);
layerId = m01;
shapes = (
{
closed = 1;
nodes = (
(454,-16,o),
(549,38,o),
(606,91,c),
(559,145,l),
(494,84,o),
(422,56,o),
(348,56,cs),
(242,56,o),
(164,105,o),
(164,177,cs),
(164,257,o),
(258,316,o),
(344,350,cs),
(427,383,o),
(530,426,o),
(530,536,cs),
(530,641,o),
(440,729,o),
(331,729,cs),
(222,729,o),
(130,640,o),
(130,540,cs),
(130,446,o),
(226,389,o),
(300,376,c),
(300,382,l),
(225,359,o),
(84,299,o),
(84,177,cs),
(84,91,o),
(168,-16,o),
(343,-16,cs)
);
},
{
closed = 1;
nodes = (
(579,354,l),
(579,411,l),
(70,411,l),
(70,354,l)
);
},
{
closed = 1;
nodes = (
(269,411,o),
(203,461,o),
(203,537,cs),
(203,613,o),
(266,657,o),
(331,657,cs),
(396,657,o),
(457,612,o),
(457,537,cs),
(457,461,o),
(391,411,o),
(331,411,cs)
);
}
);
width = 646;
},
{
anchors = (
{
name = bottom;
pos = (330,0);
},
{
name = top;
pos = (337,714);
}
);
guides = (
{
angle = 90;
pos = (605,274);
}
);
layerId = m002;
shapes = (
{
closed = 1;
nodes = (
(485,-16,o),
(566,38,o),
(633,93,c),
(564,181,l),
(501,127,o),
(429,94,o),
(349,94,cs),
(250,94,o),
(203,145,o),
(203,184,cs),
(203,240,o),
(260,287,o),
(349,320,cs),
(449,357,o),
(555,399,o),
(555,531,cs),
(555,629,o),
(472,729,o),
(335,729,cs),
(196,729,o),
(115,626,o),
(115,531,cs),
(115,399,o),
(259,364,o),
(327,364,c),
(327,381,l),
(218,362,o),
(69,296,o),
(69,178,cs),
(69,74,o),
(169,-16,o),
(349,-16,cs)
);
},
{
closed = 1;
nodes = (
(605,348,l),
(605,417,l),
(65,417,l),
(65,348,l)
);
},
{
closed = 1;
nodes = (
(283,417,o),
(233,459,o),
(233,525,cs),
(233,585,o),
(283,627,o),
(336,627,cs),
(388,627,o),
(437,585,o),
(437,525,cs),
(437,459,o),
(388,417,o),
(336,417,cs)
);
}
);
width = 688;
}
);
note = "Sould the loop be enlarged?";
unicode = 124129;
},
{
color = 4;
glyphname = "uk-nagmundari";
lastChange = "2023-02-19 02:01:55 +0000";
layers = (
{
anchors = (
{
name = bottom;
pos = (351,0);
},
{
name = top;
pos = (367,714);
}
);
layerId = m01;
shapes = (
{
closed = 1;
nodes = (
(99,0,l),
(383,682,l),
(351,682,l),
(635,0,l),
(719,0,l),
(427,714,l),
(307,714,l),
(15,0,l)
);
},
{
closed = 1;
nodes = (
(670,0,l),
(650,72,l),
(489,72,ls),
(429,72,o),
(388,118,o),
(388,178,cs),
(388,204,o),
(395,245,o),
(427,276,cs),
(675,520,l),
(624,578,l),
(382,333,ls),
(331,281,o),
(308,229,o),
(308,173,cs),
(308,93,o),
(360,0,o),
(492,0,cs)
);
}
);
width = 749;
},
{
anchors = (
{
name = bottom;
pos = (383,0);
},
{
name = top;
pos = (399,714);
}
);
layerId = m002;
shapes = (
{
closed = 1;
nodes = (
(158,0,l),
(442,682,l),
(358,682,l),
(640,0,l),
(778,0,l),
(486,714,l),
(312,714,l),
(20,0,l)
);
},
{
closed = 1;
nodes = (
(702,0,l),
(682,100,l),
(525,100,ls),
(473,100,o),
(437,118,o),
(437,178,cs),
(437,204,o),
(455,246,o),
(486,276,cs),
(740,523,l),
(663,611,l),
(387,333,ls),
(336,282,o),
(313,229,o),
(313,173,cs),
(313,93,o),
(362,0,o),
(506,0,cs)
);
}
);
width = 803;
}
);
unicode = 124130;
},
{
color = 4;
glyphname = "ur-nagmundari";
lastChange = "2023-02-18 01:19:03 +0000";
layers = (
{
anchors = (
{
name = bottom;
pos = (341,0);
},
{
name = top;
pos = (342,714);
}
);
layerId = m01;
shapes = (
{
closed = 1;
nodes = (
(481,-16,o),
(604,63,o),
(604,188,cs),
(604,308,o),
(498,360,o),
(398,374,c),
(398,367,l),
(490,389,o),
(554,445,o),
(554,538,cs),
(554,656,o),
(458,730,o),
(342,730,cs),
(226,730,o),
(130,656,o),
(130,538,cs),
(130,447,o),
(194,389,o),
(286,367,c),
(286,374,l),
(186,360,o),
(80,308,o),
(80,188,cs),
(80,63,o),
(203,-16,o),
(341,-16,cs)
);
},
{
closed = 1;
nodes = (
(240,56,o),
(155,107,o),
(155,189,cs),
(155,282,o),
(242,329,o),
(342,329,cs),
(442,329,o),
(529,282,o),
(529,189,cs),
(529,107,o),
(442,56,o),
(341,56,cs)
);
},
{
closed = 1;
nodes = (
(237,411,o),
(205,478,o),
(205,535,cs),
(205,588,o),
(250,658,o),
(342,658,cs),
(434,658,o),
(479,598,o),
(479,535,cs),
(479,480,o),
(445,411,o),
(346,411,cs)
);
},
{
closed = 1;
nodes = (
(624,357,l),
(624,411,l),
(60,411,l),
(60,357,l)
);
}
);
width = 684;
},
{
anchors = (
{
name = bottom;
pos = (328,0);
},
{
name = top;
pos = (329,714);
}
);
guides = (
{
angle = 90;
pos = (618,680);
}
);
layerId = m002;
shapes = (
{
closed = 1;
nodes = (
(488,-16,o),
(618,62,o),
(618,185,cs),
(618,299,o),
(507,349,o),
(385,364,c),
(385,357,l),
(484,382,o),
(568,426,o),
(568,538,cs),
(568,664,o),
(457,730,o),
(329,730,cs),
(202,730,o),
(90,666,o),
(90,539,cs),
(90,425,o),
(175,382,o),
(273,357,c),
(273,364,l),
(151,349,o),
(40,299,o),
(40,185,cs),
(40,62,o),
(170,-16,o),
(329,-16,cs)
);
},
{
closed = 1;
nodes = (
(227,90,o),
(174,147,o),
(174,193,cs),
(174,252,o),
(232,303,o),
(332,303,cs),
(426,303,o),
(484,258,o),
(484,198,cs),
(484,151,o),
(431,90,o),
(327,90,cs)
);
},
{
closed = 1;
nodes = (
(264,417,o),
(224,465,o),
(224,517,cs),
(224,564,o),
(257,620,o),
(329,620,cs),
(396,620,o),
(434,569,o),
(434,518,cs),
(434,469,o),
(400,417,o),
(331,417,cs)
);
},
{
closed = 1;
nodes = (
(618,348,l),
(618,417,l),
(40,417,l),
(40,348,l)
);
}
);
width = 658;
}
);
unicode = 124131;
},
{
color = 4;
glyphname = "e-nagmundari";
lastChange = "2023-02-19 02:16:35 +0000";
layers = (
{
anchors = (
{
name = bottom;
pos = (288,0);
},
{
name = top;
pos = (306,714);
},
{
name = vsign;
pos = (490,714);
}
);
layerId = m01;
shapes = (
{
closed = 1;
nodes = (
(441,-16,o),
(542,33,o),
(599,91,c),
(547,145,l),
(493,85,o),
(404,56,o),
(333,56,cs),
(208,56,o),
(145,121,o),
(145,185,cs),
(145,276,o),
(239,329,o),
(325,329,cs),
(407,329,l),
(407,401,l),
(349,401,ls),
(230,401,o),
(161,468,o),
(161,531,cs),
(161,600,o),
(220,658,o),
(319,658,cs),
(348,658,o),
(419,655,o),
(510,610,c),
(538,675,l),
(455,714,o),
(375,730,o),
(315,730,cs),
(178,730,o),
(81,644,o),
(81,534,cs),
(81,429,o),
(190,369,o),
(282,347,c),
(282,384,l),
(182,370,o),
(65,308,o),
(65,188,cs),
(65,71,o),
(183,-16,o),
(333,-16,cs)
);
}
);
width = 629;
},
{
anchors = (
{
name = bottom;
pos = (308,0);
},
{
name = top;
pos = (326,714);
},
{
name = vsign;
pos = (490,714);
}
);
layerId = m002;
shapes = (
{
closed = 1;
nodes = (
(468,-16,o),
(565,35,o),
(628,87,c),
(555,175,l),
(494,123,o),
(412,94,o),
(344,94,cs),
(256,94,o),
(189,134,o),
(189,201,cs),
(189,267,o),
(250,311,o),
(336,311,cs),
(437,311,l),
(437,420,l),
(369,420,ls),
(271,420,o),
(209,462,o),
(209,525,cs),
(209,587,o),
(268,620,o),
(341,620,cs),
(373,620,o),
(438,614,o),
(521,572,c),
(563,669,l),
(493,708,o),
(402,730,o),
(327,730,cs),
(201,730,o),
(75,668,o),
(75,539,cs),
(75,423,o),
(176,372,o),
(293,347,c),
(293,384,l),
(151,374,o),
(55,298,o),
(55,189,cs),
(55,72,o),
(170,-16,o),
(344,-16,cs)
);
}
);
width = 663;
}
);
unicode = 124132;
},
{
color = 4;
glyphname = "enn-nagmundari";
lastChange = "2023-02-18 01:19:24 +0000";
layers = (
{
anchors = (
{
name = bottom;
pos = (474,0);
},
{
name = top;
pos = (407,714);
}
);
layerId = m01;
shapes = (
{
closed = 1;
nodes = (
(770,0,l),
(770,517,ls),
(770,608,o),
(750,730,o),
(592,730,cs),
(436,730,o),
(404,608,o),
(404,517,cs),
(404,300,l),
(484,300,l),
(484,510,ls),
(484,588,o),
(503,658,o),
(592,658,cs),
(681,658,o),
(690,588,o),
(690,510,cs),
(690,0,l)
);
},
{
closed = 1;
nodes = (
(454,0,o),
(484,122,o),
(484,213,cs),
(484,430,l),
(404,430,l),
(404,220,ls),
(404,142,o),
(385,72,o),
(296,72,cs),
(207,72,o),
(188,142,o),
(188,220,cs),
(188,714,l),
(108,714,l),
(108,213,ls),
(108,122,o),
(140,0,o),
(296,0,cs)
);
}
);
width = 878;
},
{
anchors = (
{
name = bottom;
pos = (463,0);
},
{
name = top;
pos = (396,714);
}
);
layerId = m002;
shapes = (
{
closed = 1;
nodes = (
(796,0,l),
(796,507,ls),
(796,607,o),
(750,730,o),
(581,730,cs),
(404,730,o),
(366,607,o),
(366,507,cs),
(366,300,l),
(500,300,l),
(500,530,ls),
(500,573,o),
(526,620,o),
(581,620,cs),
(635,620,o),
(662,579,o),
(662,530,cs),
(662,0,l)
);
},
{
closed = 1;
nodes = (
(462,0,o),
(500,123,o),
(500,223,cs),
(500,430,l),
(366,430,l),
(366,200,ls),
(366,157,o),
(340,110,o),
(285,110,cs),
(231,110,o),
(204,151,o),
(204,200,cs),
(204,714,l),
(70,714,l),
(70,223,ls),
(70,123,o),
(116,0,o),
(285,0,cs)
);
}
);
width = 866;
}
);
unicode = 124133;
},
{
color = 4;
glyphname = "eg-nagmundari";
lastChange = "2023-02-19 02:00:29 +0000";
layers = (
{
anchors = (
{
name = bottom;
pos = (445,0);
},
{
name = top;
pos = (410,714);
}
);
layerId = m01;
shapes = (
{
closed = 1;
nodes = (
(409,-16,o),
(452,75,o),
(460,131,c),
(422,131,l),
(430,70,o),
(472,-16,o),
(570,-16,cs),
(713,-16,o),
(750,168,o),
(750,319,cs),
(750,545,o),
(667,730,o),
(525,730,cs),
(449,730,o),
(380,677,o),
(380,576,cs),
(380,447,o),
(492,336,o),
(682,336,c),
(682,402,l),
(560,402,o),
(460,464,o),
(460,574,cs),
(460,631,o),
(487,658,o),
(519,658,cs),
(569,658,o),
(670,595,o),
(670,319,cs),
(670,117,o),
(616,55,o),
(565,55,cs),
(519,55,o),
(482,104,o),
(482,177,cs),
(482,292,l),
(402,292,l),
(402,186,ls),
(402,92,o),
(350,56,o),
(308,56,cs),
(270,56,o),
(230,85,o),
(230,170,cs),
(230,213,o),
(240,260,o),
(270,340,c),
(216,387,l),
(20,264,l),
(54,207,l),
(213,306,l),
(195,336,l),
(161,272,o),
(150,221,o),
(150,173,cs),
(150,65,o),
(207,-16,o),
(305,-16,cs)
);
}
);
width = 810;
},
{
anchors = (
{
name = bottom;
pos = (481,0);
},
{
name = top;
pos = (446,714);
}
);
layerId = m002;
shapes = (
{
closed = 1;
nodes = (
(455,-16,o),
(490,83,o),
(496,131,c),
(458,131,l),
(468,66,o),
(505,-16,o),
(613,-16,cs),
(749,-16,o),
(823,115,o),
(823,325,cs),
(823,559,o),
(731,730,o),
(568,730,cs),
(463,730,o),
(399,660,o),
(399,572,cs),
(399,430,o),
(565,307,o),
(728,307,c),
(728,422,l),
(606,422,o),
(533,486,o),
(533,566,cs),
(533,593,o),
(541,628,o),
(578,628,cs),
(629,628,o),
(689,559,o),
(689,327,cs),
(689,145,o),
(652,92,o),
(606,92,cs),
(551,92,o),
(545,166,o),
(545,198,cs),
(545,292,l),
(411,292,l),
(411,186,ls),
(411,145,o),
(399,92,o),
(351,92,cs),
(306,92,o),
(293,140,o),
(293,184,cs),
(293,224,o),
(304,281,o),
(325,340,c),
(244,387,l),
(15,254,l),
(61,165,l),
(247,274,l),
(196,336,l),
(175,291,o),
(159,222,o),
(159,171,cs),
(159,61,o),
(233,-16,o),
(337,-16,cs)
);
}
);
width = 883;
}
);
unicode = 124134;
},
{
color = 4;
glyphname = "em-nagmundari";
lastChange = "2023-02-18 06:39:55 +0000";
layers = (
{
anchors = (
{
name = bottom;
pos = (436,0);
},
{
name = top;
pos = (379,714);
}
);
guides = (
{
angle = 90;
pos = (180,795);
}
);
layerId = m01;
shapes = (
{
closed = 1;
nodes = (
(256,483,ls),
(332,403,o),
(371,306,o),
(371,215,cs),
(371,106,o),
(323,56,o),
(270,56,cs),
(203,56,o),
(160,137,o),
(160,242,cs),
(160,441,o),
(343,658,o),
(466,658,cs),
(528,658,o),
(564,601,o),
(564,454,cs),
(564,0,l),
(644,0,l),
(644,472,ls),
(644,665,o),
(563,730,o),
(465,730,cs),
(295,730,o),
(80,488,o),
(80,238,cs),
(80,89,o),
(157,-16,o),
(266,-16,cs),
(355,-16,o),
(451,55,o),
(451,216,cs),
(451,340,o),
(394,454,o),
(313,539,cs),
(140,721,l),
(84,664,l)
);
}
);
width = 752;
},
{
anchors = (
{
name = bottom;
pos = (439,0);
},
{
name = top;
pos = (382,714);
}
);
guides = (
{
angle = 90;
pos = (75,795);
}
);
layerId = m002;
shapes = (
{
closed = 1;
nodes = (
(248,445,ls),
(327,366,o),
(376,274,o),
(376,201,cs),
(376,122,o),
(335,94,o),
(297,94,cs),
(244,94,o),
(209,137,o),
(209,242,cs),
(209,441,o),
(372,614,o),
(462,614,cs),
(536,614,o),
(557,555,o),
(557,444,cs),
(557,0,l),
(691,0,l),
(691,446,ls),
(691,639,o),
(641,730,o),
(488,730,cs),
(294,730,o),
(75,488,o),
(75,238,cs),
(75,89,o),
(157,-16,o),
(291,-16,cs),
(384,-16,o),
(496,44,o),
(496,219,cs),
(496,339,o),
(414,454,o),
(333,539,cs),
(152,730,l),
(60,635,l)
);
}
);
width = 761;
}
);
unicode = 124135;
},
{
color = 4;
glyphname = "en-nagmundari";
lastChange = "2023-02-19 02:01:44 +0000";
layers = (
{
anchors = (
{
name = bottom;
pos = (348,0);
},
{
name = top;
pos = (348,714);
}
);
layerId = m01;
shapes = (
{
closed = 1;
nodes = (
(394,0,l),
(639,694,l),
(579,642,l),
(691,642,l),
(691,714,l),
(561,714,l),
(329,57,l),
(359,57,l),
(127,714,l),
(0,714,l),
(0,642,l),
(109,642,l),
(49,694,l),
(294,0,l)
);
}
);
width = 691;
},
{
anchors = (
{
name = bottom;
pos = (390,0);
},
{
name = top;
pos = (390,714);
}
);
layerId = m002;
shapes = (
{
closed = 1;
nodes = (
(468,0,l),
(713,694,l),
(653,604,l),
(765,604,l),
(765,714,l),
(576,714,l),
(344,58,l),
(428,58,l),
(196,714,l),
(10,714,l),
(10,604,l),
(119,604,l),
(59,694,l),
(304,0,l)
);
}
);
width = 775;
}
);
unicode = 124136;
},
{
color = 4;
glyphname = "ett-nagmundari";
lastChange = "2023-02-19 02:01:51 +0000";
layers = (
{
anchors = (
{
name = bottom;
pos = (303,0);
},
{
name = top;
pos = (296,714);
}
);
layerId = m01;
shapes = (
{
closed = 1;
nodes = (
(407,187,o),
(482,233,o),
(508,326,c),
(484,325,l),
(484,0,l),
(564,0,l),
(564,714,l),
(484,714,l),
(484,469,l),
(475,305,o),
(398,259,o),
(317,259,cs),
(216,259,o),
(173,330,o),
(173,434,cs),
(173,523,o),
(211,592,o),
(253,664,c),
(218,714,l),
(25,714,l),
(25,642,l),
(192,642,l),
(187,687,l),
(139,619,o),
(93,526,o),
(93,433,cs),
(93,307,o),
(154,187,o),
(310,187,cs)
);
}
);
width = 684;
},
{
anchors = (
{
name = bottom;
pos = (388,0);
},
{
name = top;
pos = (401,714);
}
);
layerId = m002;
shapes = (
{
closed = 1;
nodes = (
(447,167,o),
(519,229,o),
(543,327,c),
(492,327,l),
(492,0,l),
(626,0,l),
(626,714,l),
(492,714,l),
(492,466,l),
(485,357,o),
(433,277,o),
(353,277,cs),
(278,277,o),
(228,341,o),
(228,427,cs),
(228,522,o),
(286,602,o),
(314,633,c),
(263,714,l),
(20,714,l),
(20,604,l),
(224,604,l),
(192,684,l),
(121,602,o),
(91,511,o),
(91,428,cs),
(91,294,o),
(175,167,o),
(339,167,cs)
);
}
);
width = 704;
}
);
metricRight = "op-nagmundari";
unicode = 124137;
},
{
color = 4;
glyphname = "ell-nagmundari";
lastChange = "2023-02-18 06:39:58 +0000";
layers = (
{
anchors = (
{
name = bottom;
pos = (461,0);
},
{
name = top;
pos = (434,714);
}
);
layerId = m01;
shapes = (
{
closed = 1;
nodes = (
(560,626,o),
(472,730,o),
(344,730,cs),
(241,730,o),
(130,652,o),
(65,508,c),
(137,471,l),
(186,589,o),
(279,658,o),
(346,658,cs),
(431,658,o),
(480,564,o),
(480,430,cs),
(480,304,o),
(408,55,o),
(258,55,cs),
(201,55,o),
(173,96,o),
(173,140,cs),
(173,188,o),
(205,231,o),
(257,231,cs),
(376,231,o),
(486,0,o),
(641,0,cs),
(772,0,l),
(772,714,l),
(692,714,l),
(692,72,l),
(641,72,ls),
(527,72,o),
(418,303,o),
(257,303,cs),
(179,303,o),
(94,248,o),
(94,143,cs),
(94,49,o),
(163,-16,o),
(262,-16,cs),
(485,-16,o),
(560,279,o),
(560,432,c)
);
}
);
width = 892;
},
{
anchors = (
{
name = bottom;
pos = (478,0);
},
{
name = top;
pos = (451,714);
}
);
layerId = m002;
shapes = (
{
closed = 1;
nodes = (
(604,626,o),
(505,730,o),
(361,730,cs),
(236,730,o),
(120,652,o),
(55,508,c),
(170,462,l),
(219,580,o),
(286,620,o),
(353,620,cs),
(443,620,o),
(470,515,o),
(470,419,cs),
(470,279,o),
(386,90,o),
(281,90,cs),
(249,90,o),
(209,107,o),
(209,157,cs),
(209,200,o),
(240,219,o),
(266,219,cs),
(385,219,o),
(514,0,o),
(669,0,cs),
(805,0,l),
(805,714,l),
(671,714,l),
(671,137,l),
(661,137,ls),
(547,137,o),
(427,353,o),
(266,353,cs),
(188,353,o),
(75,308,o),
(75,161,cs),
(75,48,o),
(172,-16,o),
(271,-16,cs),
(494,-16,o),
(604,279,o),
(604,432,c)
);
}
);
width = 883;
}
);
metricRight = "op-nagmundari";
unicode = 124138;
},
{
color = 4;
glyphname = "zero-nagmundari";
lastChange = "2023-02-18 09:35:47 +0000";
layers = (
{
guides = (
{
angle = 90;
pos = (80,932);
},
{
angle = 90;
pos = (160,932);
},
{
pos = (397,641);
},
{
angle = 90;
pos = (598,932);
},
{
pos = (397,56);
}
);
layerId = m01;
shapes = (
{
closed = 1;
nodes = (
(584,0,l),
(584,714,l),
(100,714,l),
(100,0,l)
);
},
{
closed = 1;
nodes = (
(180,642,l),
(504,642,l),
(504,72,l),
(180,72,l)
);
}
);
width = 684;
},
{
layerId = m002;
shapes = (
{
closed = 1;
nodes = (
(612,0,l),
(612,714,l),
(70,714,l),
(74,0,l)
);
},
{
closed = 1;
nodes = (
(207,604,l),
(477,604,l),
(477,110,l),
(207,110,l)
);
}
);
width = 682;
}
);
unicode = 124144;
},
{
color = 4;
glyphname = "one-nagmundari";
lastChange = "2023-02-18 09:35:47 +0000";
layers = (
{
layerId = m01;
shapes = (
{
closed = 1;
nodes = (
(150,714,l),
(150,0,l),
(230,0,l),
(230,714,l)
);
}
);
width = 380;
},
{
layerId = m002;
shapes = (
{
closed = 1;
nodes = (
(70,714,l),
(70,0,l),
(204,0,l),
(204,714,l)
);
}
);
width = 274;
}
);
unicode = 124145;
},
{
color = 4;
glyphname = "two-nagmundari";
lastChange = "2023-02-18 09:35:47 +0000";
layers = (
{
layerId = m01;
shapes = (
{
closed = 1;
nodes = (
(100,714,l),
(100,0,l),
(553,0,l),
(553,72,l),
(135,72,l),
(180,27,l),
(180,714,l)
);
}
);
width = 653;
},
{
layerId = m002;
shapes = (
{
closed = 1;
nodes = (
(70,714,l),
(70,0,l),
(580,0,l),
(580,110,l),
(132,110,l),
(204,27,l),
(204,714,l)
);
}
);
width = 650;
}
);
unicode = 124146;
},
{
color = 4;
glyphname = "three-nagmundari";
lastChange = "2023-02-18 09:35:47 +0000";
layers = (
{
layerId = m01;
shapes = (
{
closed = 1;
nodes = (
(601,72,l),
(151,72,l),
(170,35,l),
(601,644,l),
(601,714,l),
(100,714,l),
(100,642,l),
(549,642,l),
(530,679,l),
(100,72,l),
(100,0,l),
(601,0,l)
);
}
);
width = 701;
},
{
layerId = m002;
shapes = (
{
closed = 1;
nodes = (
(611,110,l),
(151,110,l),
(182,35,l),
(611,604,l),
(611,714,l),
(70,714,l),
(70,604,l),
(529,604,l),
(500,679,l),
(70,110,l),
(70,0,l),
(611,0,l)
);
}
);
width = 681;
}
);
unicode = 124147;
},
{
color = 4;
glyphname = "four-nagmundari";
lastChange = "2023-02-18 09:35:47 +0000";
layers = (
{
layerId = m01;
shapes = (
{
closed = 1;
nodes = (
(100,714,l),
(100,0,l),
(180,0,l),
(180,646,l),
(158,646,l),
(345,320,l),
(432,320,l),
(619,625,l),
(600,625,l),
(600,0,l),
(680,0,l),
(680,714,l),
(582,714,l),
(374,376,l),
(404,376,l),
(209,714,l)
);
}
);
width = 780;
},
{
layerId = m002;
shapes = (
{
closed = 1;
nodes = (
(70,714,l),
(70,0,l),
(204,0,l),
(204,586,l),
(155,586,l),
(342,260,l),
(429,260,l),
(616,565,l),
(570,565,l),
(570,0,l),
(704,0,l),
(704,714,l),
(579,714,l),
(371,376,l),
(401,376,l),
(206,714,l)
);
}
);
width = 774;
}
);
unicode = 124148;
},
{
color = 4;
glyphname = "five-nagmundari";
lastChange = "2023-02-18 09:35:47 +0000";
layers = (
{
layerId = m01;
shapes = (
{
closed = 1;
nodes = (
(594,72,l),
(185,72,l),
(185,328,l),
(589,328,l),
(589,714,l),
(100,714,l),
(100,642,l),
(509,642,l),
(509,400,l),
(105,400,l),
(105,0,l),
(594,0,l)
);
}
);
width = 694;
},
{
layerId = m002;
shapes = (
{
closed = 1;
nodes = (
(618,110,l),
(209,110,l),
(209,309,l),
(613,309,l),
(613,714,l),
(70,714,l),
(70,604,l),
(479,604,l),
(479,419,l),
(75,419,l),
(75,0,l),
(618,0,l)
);
}
);
width = 688;
}
);
unicode = 124149;
},
{
color = 4;
glyphname = "six-nagmundari";
lastChange = "2023-02-18 09:35:47 +0000";
layers = (
{
layerId = m01;
shapes = (
{
closed = 1;
nodes = (
(180,0,l),
(180,642,l),
(602,642,l),
(602,714,l),
(100,714,l),
(100,0,l)
);
}
);
width = 702;
},
{
layerId = m002;
shapes = (
{
closed = 1;
nodes = (
(204,0,l),
(204,604,l),
(619,604,l),
(619,714,l),
(70,714,l),
(70,0,l)
);
}
);
width = 689;
}
);
unicode = 124150;
},
{
color = 4;
glyphname = "seven-nagmundari";
lastChange = "2023-02-18 09:35:47 +0000";
layers = (
{
layerId = m01;
shapes = (
{
closed = 1;
nodes = (
(180,0,l),
(180,328,l),
(584,328,l),
(584,714,l),
(504,714,l),
(504,400,l),
(100,400,l),
(100,0,l)
);
}
);
width = 684;
},
{
layerId = m002;
shapes = (
{
closed = 1;
nodes = (
(204,0,l),
(204,309,l),
(554,309,l),
(554,714,l),
(420,714,l),
(420,419,l),
(70,419,l),
(70,0,l)
);
}
);
width = 624;
}
);
unicode = 124151;
},
{
color = 4;
glyphname = "eight-nagmundari";
lastChange = "2023-02-18 09:35:47 +0000";
layers = (
{
layerId = m01;
shapes = (
{
closed = 1;
nodes = (
(584,400,l),
(180,400,l),
(180,714,l),
(100,714,l),
(100,328,l),
(504,328,l),
(504,0,l),
(584,0,l)
);
}
);
width = 684;
},
{
layerId = m002;
shapes = (
{
closed = 1;
nodes = (
(608,419,l),
(204,419,l),
(204,714,l),
(70,714,l),
(70,309,l),
(474,309,l),
(474,0,l),
(608,0,l)
);
}
);
width = 678;
}
);
unicode = 124152;
},
{
color = 4;
glyphname = "nine-nagmundari";
lastChange = "2023-02-18 09:35:47 +0000";
layers = (
{
layerId = m01;
shapes = (
{
closed = 1;
nodes = (
(602,714,l),
(100,714,l),
(100,642,l),
(522,642,l),
(522,0,l),
(602,0,l)
);
}
);
width = 702;
},
{
layerId = m002;
shapes = (
{
closed = 1;
nodes = (
(605,714,l),
(70,714,l),
(70,604,l),
(471,604,l),
(471,0,l),
(605,0,l)
);
}
);
width = 675;
}
);
unicode = 124153;
},
{
color = 4;
glyphname = "zero-nagmundari.001";
lastChange = "2023-02-18 09:35:47 +0000";
layers = (
{
guides = (
{
angle = 90;
pos = (80,932);
},
{
angle = 90;
pos = (160,932);
},
{
pos = (397,641);
},
{
angle = 90;
pos = (598,932);
},
{
pos = (397,56);
}
);
layerId = m01;
shapes = (
{
closed = 1;
nodes = (
(554,-16,o),
(678,132,o),
(678,357,cs),
(678,582,o),
(554,730,o),
(379,730,cs),
(204,730,o),
(80,582,o),
(80,357,cs),
(80,132,o),
(204,-16,o),
(379,-16,cs)
);
},
{
closed = 1;
nodes = (
(248,56,o),
(160,167,o),
(160,357,cs),
(160,547,o),
(248,658,o),
(379,658,cs),
(510,658,o),
(598,547,o),
(598,357,cs),
(598,167,o),
(510,56,o),
(379,56,cs)
);
}
);
width = 758;
},
{
layerId = m002;
shapes = (
{
closed = 1;
nodes = (
(591,-16,o),
(722,132,o),
(722,357,cs),
(722,582,o),
(591,730,o),
(396,730,cs),
(201,730,o),
(70,582,o),
(70,357,cs),
(70,132,o),
(201,-16,o),
(396,-16,cs)
);
},
{
closed = 1;
nodes = (
(275,94,o),
(204,197,o),
(204,357,cs),
(204,517,o),
(275,620,o),
(396,620,cs),
(517,620,o),
(588,517,o),
(588,357,cs),
(588,197,o),
(517,94,o),
(396,94,cs)
);
}
);
width = 792;
}
);
},
{
color = 4;
glyphname = "nine-nagmundari.alt";
lastChange = "2023-02-18 09:35:47 +0000";
layers = (
{
layerId = m01;
shapes = (
{
closed = 1;
nodes = (
(602,642,l),
(602,714,l),
(100,714,l),
(100,642,l),
(567,642,l),
(541,683,l),
(222,0,l),
(302,0,l)
);
}
);
width = 702;
},
{
layerId = m002;
shapes = (
{
closed = 1;
nodes = (
(602,604,l),
(602,714,l),
(70,714,l),
(70,604,l),
(547,604,l),
(491,683,l),
(162,0,l),
(312,0,l)
);
}
);
width = 672;
}
);
},
{
color = 4;
glyphname = zero;
lastChange = "2023-02-18 09:35:47 +0000";
layers = (
{
layerId = m01;
shapes = (
{
closed = 1;
nodes = (
(478,-16,o),
(556,155,o),
(556,354,cs),
(556,554,o),
(477,730,o),
(304,730,cs),
(132,730,o),
(52,556,o),
(52,354,cs),
(52,155,o),
(130,-16,o),
(304,-16,cs)
);
},
{
closed = 1;
nodes = (
(183,56,o),
(132,190,o),
(132,354,cs),
(132,517,o),
(184,658,o),
(304,658,cs),
(424,658,o),
(476,519,o),
(476,354,cs),
(476,192,o),
(426,56,o),
(304,56,cs)
);
}
);
width = 608;
},
{
layerId = m002;
shapes = (
{
closed = 1;
nodes = (
(505,-16,o),
(587,153,o),
(587,360,cs),
(587,566,o),
(506,730,o),
(324,730,cs),
(141,730,o),
(60,566,o),
(60,360,cs),
(60,156,o),
(140,-16,o),
(322,-16,cs)
);
},
{
closed = 1;
nodes = (
(232,94,o),
(194,233,o),
(194,359,cs),
(194,483,o),
(231,620,o),
(323,620,cs),
(414,620,o),
(453,487,o),
(453,360,cs),
(453,235,o),
(415,94,o),
(323,94,cs)
);
}
);
width = 647;
}
);
note = zero;
unicode = 48;
},
{
color = 4;
glyphname = one;
lastChange = "2023-02-18 09:35:47 +0000";
layers = (
{
layerId = m01;
shapes = (
{
closed = 1;
nodes = (
(316,0,l),
(316,714,l),
(255,714,l),
(235,605,o),
(187,596,o),
(70,596,c),
(70,536,l),
(264,536,l),
(235,564,l),
(235,0,l)
);
}
);
width = 446;
},
{
layerId = m002;
shapes = (
{
closed = 1;
nodes = (
(365,0,l),
(365,714,l),
(253,714,l),
(230,616,o),
(180,601,o),
(50,601,c),
(50,523,l),
(275,523,l),
(224,565,l),
(224,0,l)
);
}
);
width = 465;
}
);
note = one;
unicode = 49;
},
{
color = 4;
glyphname = two;
lastChange = "2023-02-18 09:35:47 +0000";
layers = (
{
layerId = m01;
shapes = (
{
closed = 1;
nodes = (
(522,0,l),
(522,72,l),
(141,72,l),
(141,81,ls),
(141,137,o),
(228,206,o),
(320,265,cs),
(428,334,o),
(530,402,o),
(530,525,cs),
(530,648,o),
(427,730,o),
(299,730,cs),
(168,730,o),
(67,643,o),
(50,533,c),
(122,517,l),
(144,625,o),
(227,658,o),
(299,658,cs),
(390,658,o),
(450,606,o),
(450,530,cs),
(450,442,o),
(369,388,o),
(275,327,cs),
(168,257,o),
(57,184,o),
(57,79,c),
(57,0,l)
);
}
);
width = 570;
},
{
layerId = m002;
shapes = (
{
closed = 1;
nodes = (
(566,0,l),
(566,116,l),
(197,116,l),
(197,123,ls),
(197,159,o),
(253,199,o),
(418,282,cs),
(519,333,o),
(566,411,o),
(566,506,cs),
(566,638,o),
(476,729,o),
(331,729,cs),
(177,729,o),
(90,627,o),
(68,502,c),
(202,470,l),
(218,563,o),
(258,612,o),
(326,612,cs),
(386,612,o),
(426,573,o),
(426,512,cs),
(426,460,o),
(394,390,o),
(296,339,cs),
(141,258,o),
(65,194,o),
(65,94,cs),
(65,0,l)
);
}
);
width = 596;
}
);
note = two;
unicode = 50;
},
{
color = 4;
glyphname = three;
lastChange = "2023-02-18 09:35:47 +0000";
layers = (
{
layerId = m01;
shapes = (
{
closed = 1;
nodes = (
(434,-16,o),
(545,62,o),
(545,195,cs),
(545,301,o),
(475,364,o),
(370,382,c),
(371,370,l),
(453,394,o),
(512,452,o),
(512,541,cs),
(512,659,o),
(410,730,o),
(293,730,cs),
(174,730,o),
(86,656,o),
(63,549,c),
(142,531,l),
(151,608,o),
(205,658,o),
(292,658,cs),
(376,658,o),
(428,612,o),
(428,533,cs),
(428,469,o),
(393,414,o),
(295,414,cs),
(256,414,l),
(256,341,l),
(295,341,ls),
(396,341,o),
(462,279,o),
(462,194,cs),
(462,112,o),
(398,56,o),
(303,56,cs),
(205,56,o),
(146,112,o),
(127,199,c),
(50,180,l),
(77,65,o),
(169,-16,o),
(303,-16,cs)
);
}
);
width = 605;
},
{
layerId = m002;
shapes = (
{
closed = 1;
nodes = (
(461,-16,o),
(573,64,o),
(573,203,cs),
(573,287,o),
(525,355,o),
(424,385,c),
(425,367,l),
(498,392,o),
(541,457,o),
(541,531,cs),
(541,653,o),
(453,730,o),
(322,730,cs),
(177,730,o),
(91,637,o),
(71,513,c),
(208,481,l),
(217,548,o),
(249,613,o),
(323,613,cs),
(377,613,o),
(403,579,o),
(403,526,cs),
(403,470,o),
(374,426,o),
(314,426,cs),
(238,426,l),
(238,320,l),
(314,320,ls),
(387,320,o),
(435,265,o),
(435,202,cs),
(435,138,o),
(390,101,o),
(327,101,cs),
(249,101,o),
(206,156,o),
(190,241,c),
(60,211,l),
(80,70,o),
(182,-16,o),
(328,-16,cs)
);
}
);
width = 633;
}
);
note = three;
unicode = 51;
},
{
color = 4;
glyphname = four;
lastChange = "2023-02-18 09:35:47 +0000";
layers = (
{
layerId = m01;
shapes = (
{
closed = 1;
nodes = (
(467,0,l),
(467,177,l),
(570,177,l),
(570,249,l),
(467,249,l),
(467,718,l),
(380,718,l),
(50,265,l),
(50,177,l),
(387,177,l),
(387,0,l)
);
},
{
closed = 1;
nodes = (
(430,656,l),
(387,685,l),
(387,249,l),
(63,249,l),
(103,213,l)
);
}
);
width = 630;
},
{
layerId = m002;
shapes = (
{
closed = 1;
nodes = (
(488,0,l),
(488,164,l),
(586,164,l),
(586,274,l),
(488,274,l),
(488,718,l),
(355,718,l),
(40,279,l),
(40,164,l),
(347,164,l),
(347,0,l)
);
},
{
closed = 1;
nodes = (
(374,541,l),
(347,550,l),
(347,274,l),
(132,274,l),
(150,236,l)
);
}
);
width = 641;
}
);
note = four;
unicode = 52;
},
{
color = 4;
glyphname = five;
lastChange = "2023-02-18 09:35:47 +0000";
layers = (
{
layerId = m01;
shapes = (
{
closed = 1;
nodes = (
(434,-16,o),
(528,93,o),
(528,229,cs),
(528,370,o),
(428,469,o),
(295,469,cs),
(241,469,o),
(163,453,o),
(113,391,c),
(152,384,l),
(193,701,l),
(114,642,l),
(487,642,l),
(487,714,l),
(113,714,l),
(67,344,l),
(142,328,l),
(172,362,o),
(224,396,o),
(290,396,cs),
(373,396,o),
(445,341,o),
(445,232,cs),
(445,136,o),
(390,56,o),
(274,56,cs),
(203,56,o),
(151,86,o),
(125,165,c),
(50,145,l),
(78,49,o),
(158,-16,o),
(278,-16,cs)
);
}
);
width = 578;
},
{
layerId = m002;
shapes = (
{
closed = 1;
nodes = (
(474,-15,o),
(580,83,o),
(580,235,cs),
(580,373,o),
(477,483,o),
(339,483,cs),
(314,483,o),
(240,474,o),
(202,436,c),
(220,436,l),
(245,653,l),
(195,608,l),
(542,608,l),
(542,714,l),
(123,714,l),
(78,340,l),
(198,312,l),
(226,348,o),
(275,372,o),
(312,372,cs),
(378,372,o),
(441,324,o),
(441,235,cs),
(441,151,o),
(390,91,o),
(317,91,cs),
(256,91,o),
(213,141,o),
(193,211,c),
(60,180,l),
(95,74,o),
(168,-15,o),
(317,-15,cs)
);
}
);
width = 640;
}
);
note = five;
unicode = 53;
},
{
color = 4;
glyphname = six;
lastChange = "2023-02-18 09:35:47 +0000";
layers = (
{
guides = (
{
angle = 90;
pos = (896,610);
},
{
angle = 90;
pos = (-2,610);
}
);
layerId = m01;
shapes = (
{
closed = 1;
nodes = (
(452,-16,o),
(541,84,o),
(541,216,cs),
(541,356,o),
(441,456,o),
(317,456,cs),
(220,456,o),
(132,394,o),
(102,276,c),
(136,265,l),
(136,288,l),
(136,525,o),
(185,658,o),
(320,658,cs),
(406,658,o),
(444,605,o),
(468,546,c),
(534,574,l),
(503,665,o),
(428,730,o),
(318,730,cs),
(133,730,o),
(60,546,o),
(60,341,cs),
(60,134,o),
(134,-16,o),
(309,-16,cs)
);
},
{
closed = 1;
nodes = (
(220,56,o),
(152,126,o),
(152,214,cs),
(152,296,o),
(210,384,o),
(313,384,cs),
(405,384,o),
(461,314,o),
(461,217,cs),
(461,119,o),
(405,56,o),
(315,56,cs)
);
}
);
width = 601;
},
{
layerId = m002;
shapes = (
{
closed = 1;
nodes = (
(473,-16,o),
(573,82,o),
(573,233,cs),
(573,372,o),
(485,472,o),
(357,472,cs),
(298,472,o),
(208,450,o),
(152,325,c),
(192,339,l),
(192,353,l),
(192,548,o),
(268,613,o),
(334,613,cs),
(387,613,o),
(425,572,o),
(440,513,c),
(565,542,l),
(537,649,o),
(467,730,o),
(337,730,cs),
(145,730,o),
(60,554,o),
(60,345,cs),
(60,132,o),
(150,-16,o),
(328,-16,cs)
);
},
{
closed = 1;
nodes = (
(268,92,o),
(218,154,o),
(218,228,cs),
(218,293,o),
(257,363,o),
(327,363,cs),
(394,363,o),
(434,298,o),
(434,227,cs),
(434,153,o),
(390,92,o),
(329,92,cs)
);
}
);
width = 633;
}
);
note = six;
unicode = 54;
},
{
color = 4;
glyphname = seven;
lastChange = "2023-02-18 09:35:47 +0000";
layers = (
{
layerId = m01;
shapes = (
{
closed = 1;
nodes = (
(226,0,l),
(265,269,o),
(362,445,o),
(534,661,c),
(534,714,l),
(30,714,l),
(30,642,l),
(472,642,l),
(450,675,l),
(276,483,o),
(172,257,o),
(135,0,c)
);
}
);
width = 574;
},
{
layerId = m002;
shapes = (
{
closed = 1;
nodes = (
(274,-1,l),
(308,254,o),
(395,425,o),
(555,629,c),
(555,714,l),
(30,714,l),
(30,608,l),
(401,608,l),
(388,618,l),
(240,439,o),
(164,228,o),
(129,-1,c)
);
}
);
width = 590;
}
);
note = seven;
unicode = 55;
},
{
color = 4;
glyphname = eight;
lastChange = "2023-02-18 09:35:47 +0000";
layers = (
{
layerId = m01;
shapes = (
{
closed = 1;
nodes = (
(447,-16,o),
(548,72,o),
(548,201,cs),
(548,292,o),
(497,359,o),
(399,389,c),
(399,375,l),
(478,406,o),
(529,466,o),
(529,544,cs),
(529,648,o),
(438,730,o),
(301,730,cs),
(159,730,o),
(77,643,o),
(77,543,cs),
(77,464,o),
(129,399,o),
(212,375,c),
(212,389,l),
(125,366,o),
(60,293,o),
(60,196,cs),
(60,77,o),
(157,-16,o),
(304,-16,cs)
);
},
{
closed = 1;
nodes = (
(199,56,o),
(140,117,o),
(140,197,cs),
(140,283,o),
(209,345,o),
(303,345,cs),
(398,345,o),
(466,281,o),
(466,196,cs),
(466,117,o),
(408,56,o),
(303,56,cs)
);
},
{
closed = 1;
nodes = (
(221,416,o),
(157,466,o),
(157,540,cs),
(157,613,o),
(220,658,o),
(305,658,cs),
(389,658,o),
(447,614,o),
(447,540,cs),
(447,465,o),
(386,416,o),
(303,416,cs)
);
}
);
width = 608;
},
{
layerId = m002;
shapes = (
{
closed = 1;
nodes = (
(473,-16,o),
(568,82,o),
(568,195,cs),
(568,280,o),
(519,358,o),
(439,389,c),
(439,351,l),
(498,394,o),
(552,458,o),
(552,533,cs),
(552,642,o),
(447,730,o),
(312,730,cs),
(184,730,o),
(76,651,o),
(76,531,cs),
(76,446,o),
(130,385,o),
(205,351,c),
(205,391,l),
(112,356,o),
(60,291,o),
(60,194,cs),
(60,65,o),
(159,-16,o),
(309,-16,cs)
);
},
{
closed = 1;
nodes = (
(249,91,o),
(199,144,o),
(199,206,cs),
(199,272,o),
(250,324,o),
(313,324,cs),
(376,324,o),
(429,274,o),
(429,206,cs),
(429,141,o),
(377,91,o),
(313,91,cs)
);
},
{
closed = 1;
nodes = (
(260,429,o),
(215,475,o),
(215,528,cs),
(215,576,o),
(248,623,o),
(312,623,cs),
(376,623,o),
(413,576,o),
(413,527,cs),
(413,476,o),
(368,429,o),
(313,429,cs)
);
}
);
width = 628;
}
);
note = eight;
unicode = 56;
},
{
color = 1;
glyphname = danda;
lastChange = "2023-02-10 12:05:22 +0000";
layers = (
{
layerId = m01;
shapes = (
{
closed = 1;
nodes = (
(280,0,l),
(280,714,l),
(200,714,l),
(200,0,l)
);
}
);
width = 480;
},
{
layerId = m002;
shapes = (
{
closed = 1;
nodes = (
(334,0,l),
(334,714,l),
(200,714,l),
(200,0,l)
);
}
);
width = 534;
}
);
note = dn_danda;
unicode = 2404;
},
{
category = Punctuation;
color = 1;
glyphname = grave;
lastChange = "2023-02-10 13:59:33 +0000";
layers = (
{
layerId = m01;
shapes = (
{
closed = 1;
nodes = (
(233,491,l),
(170,714,l),
(60,714,l),
(168,491,l)
);
}
);
width = 263;
},
{
layerId = m002;
shapes = (
{
closed = 1;
nodes = (
(277,461,l),
(224,714,l),
(60,714,l),
(178,461,l)
);
}
);
width = 307;
}
);
note = grave;
unicode = 96;
},
{
color = 1;
glyphname = period;
kernLeft = period;
lastChange = "2023-02-18 13:48:16 +0000";
layers = (
{
layerId = m01;
shapes = (
{
closed = 1;
nodes = (
(130,0,l),
(130,92,l),
(40,92,l),
(40,0,l)
);
}
);
width = 170;
},
{
layerId = m002;
shapes = (
{
closed = 1;
nodes = (
(211,0,l),
(211,145,l),
(60,145,l),
(60,0,l)
);
}
);
width = 271;
}
);
note = period;
unicode = 46;
},
{
color = 1;
glyphname = comma;
kernLeft = period;
lastChange = "2023-02-18 13:48:19 +0000";
layers = (
{
layerId = m01;
shapes = (
{
closed = 1;
nodes = (
(109,-97,o),
(140,-44,o),
(140,0,cs),
(140,91,l),
(46,91,l),
(46,-1,l),
(78,-1,l),
(78,-33,o),
(68,-57,o),
(40,-90,c),
(75,-120,l)
);
}
);
width = 180;
},
{
layerId = m002;
shapes = (
{
closed = 1;
nodes = (
(149,-124,o),
(211,-70,o),
(211,9,cs),
(211,145,l),
(60,145,l),
(60,0,l),
(145,0,l),
(138,-46,o),
(115,-77,o),
(68,-102,c),
(93,-148,l)
);
}
);
width = 271;
}
);
metricLeft = period;
metricRight = period;
note = comma;
unicode = 44;
},
{
color = 1;
glyphname = exclam;
lastChange = "2023-02-18 13:49:46 +0000";
layers = (
{
layerId = m01;
shapes = (
{
closed = 1;
nodes = (
(160,146,l),
(184,371,l),
(184,714,l),
(102,714,l),
(102,368,l),
(126,146,l)
);
},
{
closed = 1;
nodes = (
(184,0,l),
(184,82,l),
(100,82,l),
(100,0,l)
);
}
);
width = 284;
},
{
layerId = m002;
shapes = (
{
closed = 1;
nodes = (
(192,156,l),
(216,371,l),
(216,714,l),
(80,714,l),
(80,368,l),
(104,156,l)
);
},
{
closed = 1;
nodes = (
(206,0,l),
(206,102,l),
(88,102,l),
(88,0,l)
);
}
);
width = 316;
}
);
note = exclam;
unicode = 33;
},
{
color = 1;
glyphname = question;
lastChange = "2023-02-18 09:40:07 +0000";
layers = (
{
layerId = m01;
shapes = (
{
closed = 1;
nodes = (
(357,159,l),
(357,210,ls),
(357,269,o),
(395,306,o),
(438,347,cs),
(486,392,o),
(539,442,o),
(539,532,cs),
(539,645,o),
(455,730,o),
(328,730,cs),
(188,730,o),
(103,631,o),
(100,483,c),
(178,483,l),
(178,589,o),
(232,659,o),
(327,659,cs),
(413,659,o),
(458,602,o),
(458,531,cs),
(458,466,o),
(419,428,o),
(376,388,cs),
(329,345,o),
(281,298,o),
(281,214,cs),
(281,159,l)
);
},
{
closed = 1;
nodes = (
(357,0,l),
(357,81,l),
(281,81,l),
(281,0,l)
);
}
);
width = 639;
},
{
layerId = m002;
shapes = (
{
closed = 1;
nodes = (
(355,169,l),
(355,221,ls),
(355,282,o),
(394,323,o),
(434,365,cs),
(477,411,o),
(521,458,o),
(521,535,cs),
(521,644,o),
(434,730,o),
(303,730,cs),
(156,730,o),
(67,622,o),
(60,463,c),
(188,463,l),
(192,555,o),
(226,622,o),
(300,622,cs),
(355,622,o),
(386,579,o),
(386,525,cs),
(386,467,o),
(350,430,o),
(312,391,cs),
(270,348,o),
(227,302,o),
(227,224,cs),
(227,169,l)
);
},
{
closed = 1;
nodes = (
(355,0,l),
(355,106,l),
(226,106,l),
(226,0,l)
);
}
);
width = 621;
}
);
note = question;
unicode = 63;
},
{
color = 1;
glyphname = bullet;
lastChange = "2023-02-10 13:46:59 +0000";
layers = (
{
layerId = m01;
shapes = (
{
closed = 1;
nodes = (
(271,260,o),
(321,311,o),
(321,372,cs),
(321,434,o),
(271,486,o),
(211,486,cs),
(150,486,o),
(100,434,o),
(100,372,cs),
(100,311,o),
(150,260,o),
(211,260,cs)
);
}
);
width = 421;
},
{
layerId = m002;
shapes = (
{
closed = 1;
nodes = (
(320,235,o),
(383,302,o),
(383,375,cs),
(383,447,o),
(320,514,o),
(241,514,cs),
(161,514,o),
(100,448,o),
(100,375,cs),
(100,302,o),
(161,235,o),
(241,235,cs)
);
}
);
width = 483;
}
);
note = bullet;
unicode = 8226;
},
{
color = 1;
glyphname = asterisk;
lastChange = "2023-02-18 10:05:00 +0000";
layers = (
{
layerId = m01;
shapes = (
{
closed = 1;
nodes = (
(300,598,l),
(391,462,l),
(451,508,l),
(339,627,l),
(503,666,l),
(475,742,l),
(325,678,l),
(337,841,l),
(262,841,l),
(276,677,l),
(123,742,l),
(100,668,l),
(260,627,l),
(147,508,l),
(206,462,l)
);
}
);
width = 603;
},
{
layerId = m002;
shapes = (
{
closed = 1;
nodes = (
(304,546,l),
(377,435,l),
(488,518,l),
(394,615,l),
(532,647,l),
(486,773,l),
(367,722,l),
(377,849,l),
(231,849,l),
(243,721,l),
(119,774,l),
(80,650,l),
(213,616,l),
(120,518,l),
(230,435,l)
);
}
);
width = 632;
}
);
note = asterisk;
unicode = 42;
},
{
color = 1;
glyphname = numbersign;
lastChange = "2023-02-18 10:05:07 +0000";
layers = (
{
layerId = m01;
shapes = (
{
closed = 1;
nodes = (
(420,733,l),
(339,733,l),
(204,-16,l),
(284,-16,l)
);
},
{
closed = 1;
nodes = (
(752,438,l),
(762,510,l),
(147,510,l),
(138,438,l)
);
},
{
closed = 1;
nodes = (
(712,219,l),
(721,291,l),
(107,291,l),
(100,219,l)
);
},
{
closed = 1;
nodes = (
(650,733,l),
(569,733,l),
(432,-16,l),
(513,-16,l)
);
}
);
width = 862;
},
{
layerId = m002;
shapes = (
{
closed = 1;
nodes = (
(427,733,l),
(292,733,l),
(157,-16,l),
(291,-16,l)
);
},
{
closed = 1;
nodes = (
(752,419,l),
(762,529,l),
(127,529,l),
(118,419,l)
);
},
{
closed = 1;
nodes = (
(712,200,l),
(721,310,l),
(87,310,l),
(80,200,l)
);
},
{
closed = 1;
nodes = (
(677,733,l),
(542,733,l),
(405,-16,l),
(540,-16,l)
);
}
);
width = 842;
}
);
note = numbersign;
unicode = 35;
},
{
color = 1;
glyphname = slash;
lastChange = "2023-02-18 10:05:16 +0000";
layers = (
{
layerId = m01;
shapes = (
{
closed = 1;
nodes = (
(165,0,l),
(380,714,l),
(298,714,l),
(80,0,l)
);
}
);
width = 460;
},
{
layerId = m002;
shapes = (
{
closed = 1;
nodes = (
(199,0,l),
(414,714,l),
(278,714,l),
(60,0,l)
);
}
);
width = 474;
}
);
note = slash;
unicode = 47;
},
{
color = 1;
glyphname = hyphen;
lastChange = "2023-02-18 09:40:38 +0000";
layers = (
{
layerId = m01;
shapes = (
{
closed = 1;
nodes = (
(530,319,l),
(530,391,l),
(100,391,l),
(100,319,l)
);
}
);
width = 630;
},
{
layerId = m002;
shapes = (
{
closed = 1;
nodes = (
(530,301,l),
(530,411,l),
(100,411,l),
(100,301,l)
);
}
);
width = 630;
}
);
note = hyphen;
unicode = 45;
},
{
color = 1;
glyphname = endash;
lastChange = "2023-02-10 12:14:12 +0000";
layers = (
{
layerId = m01;
shapes = (
{
closed = 1;
nodes = (
(725,319,l),
(725,391,l),
(100,391,l),
(100,319,l)
);
}
);
width = 825;
},
{
layerId = m002;
shapes = (
{
closed = 1;
nodes = (
(727,301,l),
(727,411,l),
(100,411,l),
(100,301,l)
);
}
);
width = 827;
}
);
note = endash;
unicode = 8211;
},
{
color = 1;
glyphname = emdash;
lastChange = "2023-02-18 10:05:29 +0000";
layers = (
{
layerId = m01;
shapes = (
{
closed = 1;
nodes = (
(844,319,l),
(844,391,l),
(100,391,l),
(100,319,l)
);
}
);
width = 944;
},
{
layerId = m002;
shapes = (
{
closed = 1;
nodes = (
(846,301,l),
(846,411,l),
(100,411,l),
(100,301,l)
);
}
);
width = 946;
}
);
note = emdash;
unicode = 8212;
},
{
color = 1;
glyphname = underscore;
lastChange = "2023-02-10 12:15:50 +0000";
layers = (
{
layerId = m01;
shapes = (
{
closed = 1;
nodes = (
(561,-72,l),
(561,0,l),
(0,0,l),
(0,-72,l)
);
}
);
width = 561;
},
{
layerId = m002;
shapes = (
{
closed = 1;
nodes = (
(558,-110,l),
(558,0,l),
(0,0,l),
(0,-110,l)
);
}
);
width = 558;
}
);
note = underscore;
unicode = 95;
},
{
color = 1;
glyphname = parenleft;
lastChange = "2023-02-18 13:43:38 +0000";
layers = (
{
layerId = m01;
shapes = (
{
closed = 1;
nodes = (
(349,-71,l),
(264,87,o),
(196,235,o),
(196,428,cs),
(196,624,o),
(264,770,o),
(349,929,c),
(279,929,l),
(155,765,o),
(100,608,o),
(100,421,cs),
(100,241,o),
(151,93,o),
(279,-71,c)
);
}
);
width = 399;
},
{
layerId = m002;
shapes = (
{
closed = 1;
nodes = (
(398,-74,l),
(306,95,o),
(247,264,o),
(247,429,cs),
(247,595,o),
(306,763,o),
(398,931,c),
(258,931,l),
(127,757,o),
(80,596,o),
(80,428,cs),
(80,230,o),
(146,52,o),
(258,-74,c)
);
}
);
width = 443;
}
);
note = parenleft;
unicode = 40;
},
{
color = 1;
glyphname = braceleft;
lastChange = "2023-02-18 13:43:55 +0000";
layers = (
{
layerId = m01;
shapes = (
{
closed = 1;
nodes = (
(314,-63,o),
(333,-63,o),
(368,-53,c),
(358,3,l),
(335,-2,o),
(324,-4,o),
(310,-4,cs),
(274,-4,o),
(256,10,o),
(256,81,cs),
(256,319,ls),
(256,391,o),
(191,440,o),
(123,440,c),
(123,418,l),
(198,418,o),
(256,471,o),
(256,541,cs),
(256,779,ls),
(256,850,o),
(274,864,o),
(310,864,cs),
(324,864,o),
(335,862,o),
(358,857,c),
(368,913,l),
(333,923,o),
(314,923,o),
(299,923,cs),
(234,923,o),
(176,881,o),
(176,793,cs),
(176,570,ls),
(176,518,o),
(160,459,o),
(95,459,cs),
(80,459,l),
(80,400,l),
(95,400,ls),
(161,400,o),
(176,340,o),
(176,288,cs),
(176,67,ls),
(176,-21,o),
(234,-63,o),
(299,-63,cs)
);
}
);
width = 418;
},
{
layerId = m002;
shapes = (
{
closed = 1;
nodes = (
(338,-63,o),
(370,-61,o),
(402,-53,c),
(392,43,l),
(369,38,o),
(358,36,o),
(344,36,cs),
(308,36,o),
(290,53,o),
(290,101,cs),
(290,319,ls),
(290,391,o),
(225,440,o),
(157,440,c),
(157,418,l),
(232,418,o),
(290,471,o),
(290,541,cs),
(290,779,ls),
(290,827,o),
(308,844,o),
(344,844,cs),
(358,844,o),
(369,842,o),
(392,837,c),
(402,933,l),
(370,941,o),
(338,943,o),
(323,943,cs),
(258,943,o),
(156,908,o),
(156,790,cs),
(156,580,ls),
(156,528,o),
(140,469,o),
(75,469,cs),
(60,469,l),
(60,390,l),
(75,390,ls),
(141,390,o),
(156,330,o),
(156,278,cs),
(156,90,ls),
(156,-28,o),
(258,-63,o),
(323,-63,cs)
);
}
);
width = 442;
}
);
note = braceleft;
unicode = 123;
},
{
color = 1;
glyphname = bracketleft;
lastChange = "2023-02-18 13:43:20 +0000";
layers = (
{
layerId = m01;
shapes = (
{
closed = 1;
nodes = (
(328,-85,l),
(328,-13,l),
(200,-13,l),
(200,868,l),
(328,868,l),
(328,940,l),
(120,940,l),
(120,-85,l)
);
}
);
width = 378;
},
{
layerId = m002;
shapes = (
{
closed = 1;
nodes = (
(320,-83,l),
(320,16,l),
(222,16,l),
(222,842,l),
(320,842,l),
(320,939,l),
(90,939,l),
(90,-83,l)
);
}
);
width = 370;
}
);
note = bracketleft;
unicode = 91;
},
{
color = 1;
glyphname = quoteleft;
lastChange = "2023-02-18 10:08:07 +0000";
layers = (
{
layerId = m01;
shapes = (
{
closed = 1;
nodes = (
(61,707,o),
(30,654,o),
(30,610,cs),
(30,519,l),
(124,519,l),
(124,611,l),
(92,611,l),
(92,643,o),
(102,666,o),
(130,700,c),
(95,730,l)
);
}
);
width = 160;
},
{
layerId = m002;
shapes = (
{
closed = 1;
nodes = (
(102,706,o),
(40,652,o),
(40,573,cs),
(40,437,l),
(191,437,l),
(191,582,l),
(106,582,l),
(112,628,o),
(135,659,o),
(182,684,c),
(158,730,l)
);
}
);
width = 231;
}
);
note = quoteleft;
unicode = 8216;
},
{
color = 1;
glyphname = quoteright;
lastChange = "2023-02-18 10:08:11 +0000";
layers = (
{
layerId = m01;
shapes = (
{
closed = 1;
nodes = (
(99,526,o),
(130,579,o),
(130,623,cs),
(130,714,l),
(36,714,l),
(36,622,l),
(68,622,l),
(68,590,o),
(58,567,o),
(30,533,c),
(65,503,l)
);
}
);
width = 160;
},
{
layerId = m002;
shapes = (
{
closed = 1;
nodes = (
(129,445,o),
(191,499,o),
(191,578,cs),
(191,714,l),
(40,714,l),
(40,569,l),
(125,569,l),
(119,523,o),
(96,492,o),
(49,467,c),
(73,421,l)
);
}
);
width = 231;
}
);
note = quoteright;
unicode = 8217;
},
{
color = 1;
glyphname = quotesingle;
lastChange = "2023-02-18 13:42:26 +0000";
layers = (
{
layerId = m01;
shapes = (
{
closed = 1;
nodes = (
(112,502,l),
(127,714,l),
(30,714,l),
(43,502,l)
);
}
);
width = 157;
},
{
layerId = m002;
shapes = (
{
closed = 1;
nodes = (
(142,442,l),
(167,714,l),
(40,714,l),
(63,442,l)
);
}
);
width = 207;
}
);
note = quotesingle;
unicode = 39;
},
{
color = 1;
glyphname = at;
lastChange = "2023-02-18 10:09:07 +0000";
layers = (
{
layerId = m01;
shapes = (
{
closed = 1;
nodes = (
(502,-41,o),
(566,-29,o),
(619,-5,c),
(590,66,l),
(549,47,o),
(504,38,o),
(456,38,cs),
(268,38,o),
(140,155,o),
(140,343,cs),
(140,530,o),
(286,671,o),
(471,671,cs),
(615,671,o),
(737,566,o),
(737,423,cs),
(737,322,o),
(683,212,o),
(591,212,cs),
(581,212,o),
(576,217,o),
(576,229,cs),
(576,236,o),
(578,246,o),
(582,259,cs),
(661,536,l),
(587,561,l),
(555,469,l),
(580,492,l),
(568,527,o),
(523,576,o),
(459,576,cs),
(324,576,o),
(225,432,o),
(225,297,cs),
(225,214,o),
(286,133,o),
(380,133,cs),
(438,133,o),
(476,156,o),
(512,211,c),
(488,214,l),
(488,177,o),
(512,133,o),
(566,133,cs),
(712,133,o),
(815,264,o),
(815,428,cs),
(815,611,o),
(655,749,o),
(473,749,cs),
(242,749,o),
(60,576,o),
(60,340,cs),
(60,119,o),
(217,-41,o),
(440,-41,cs)
);
},
{
closed = 1;
nodes = (
(333,210,o),
(309,255,o),
(309,307,cs),
(309,387,o),
(389,498,o),
(460,498,cs),
(506,498,o),
(538,464,o),
(538,414,cs),
(538,399,o),
(531,372,o),
(513,314,cs),
(493,250,o),
(442,210,o),
(387,210,cs)
);
}
);
width = 875;
},
{
layerId = m002;
shapes = (
{
closed = 1;
nodes = (
(552,-48,o),
(610,-36,o),
(662,-15,c),
(634,77,l),
(598,59,o),
(556,49,o),
(509,49,cs),
(331,49,o),
(204,165,o),
(204,326,cs),
(204,529,o),
(350,655,o),
(523,655,cs),
(655,655,o),
(768,557,o),
(768,423,cs),
(768,327,o),
(714,228,o),
(647,228,cs),
(641,228,o),
(639,233,o),
(639,240,cs),
(639,246,o),
(641,254,o),
(643,262,cs),
(717,525,l),
(627,568,l),
(601,495,l),
(632,516,l),
(610,551,o),
(571,583,o),
(512,583,cs),
(371,583,o),
(271,435,o),
(271,302,cs),
(271,209,o),
(340,131,o),
(434,131,cs),
(488,131,o),
(527,149,o),
(559,190,c),
(527,194,l),
(536,157,o),
(564,131,o),
(608,131,cs),
(765,131,o),
(870,262,o),
(870,428,cs),
(870,613,o),
(709,751,o),
(524,751,cs),
(293,751,o),
(100,585,o),
(100,323,cs),
(100,118,o),
(269,-48,o),
(493,-48,cs)
);
},
{
closed = 1;
nodes = (
(397,226,o),
(379,265,o),
(379,311,cs),
(379,384,o),
(433,485,o),
(513,485,cs),
(550,485,o),
(575,457,o),
(575,414,cs),
(575,401,o),
(567,374,o),
(551,321,cs),
(534,263,o),
(489,226,o),
(441,226,cs)
);
}
);
width = 970;
}
);
note = at;
unicode = 64;
},
{
color = 1;
glyphname = ampersand;
lastChange = "2023-02-18 10:09:12 +0000";
layers = (
{
layerId = m01;
shapes = (
{
closed = 1;
nodes = (
(382,-16,o),
(464,23,o),
(524,101,cs),
(579,173,o),
(597,248,o),
(603,322,c),
(528,322,l),
(521,262,o),
(509,211,o),
(469,154,cs),
(421,86,o),
(361,64,o),
(287,64,cs),
(207,64,o),
(138,105,o),
(138,181,cs),
(138,246,o),
(208,292,o),
(305,354,cs),
(402,416,o),
(490,491,o),
(490,581,cs),
(490,666,o),
(414,730,o),
(320,730,cs),
(228,730,o),
(151,668,o),
(151,582,cs),
(151,525,o),
(187,448,o),
(248,365,cs),
(320,267,o),
(381,195,o),
(470,104,cs),
(498,75,o),
(554,15,o),
(567,0,c),
(672,0,l),
(610,59,o),
(586,84,o),
(523,153,cs),
(410,278,o),
(363,332,o),
(311,406,cs),
(251,492,o),
(227,545,o),
(227,582,cs),
(227,623,o),
(269,654,o),
(319,654,cs),
(375,654,o),
(414,627,o),
(414,581,cs),
(414,523,o),
(333,465,o),
(261,415,cs),
(140,331,o),
(60,275,o),
(60,183,cs),
(60,61,o),
(155,-16,o),
(288,-16,cs)
);
}
);
width = 732;
},
{
layerId = m002;
shapes = (
{
closed = 1;
nodes = (
(406,-16,o),
(479,6,o),
(551,92,cs),
(611,164,o),
(627,195,o),
(644,345,c),
(513,345,l),
(508,243,o),
(489,216,o),
(461,181,cs),
(431,143,o),
(366,95,o),
(321,95,cs),
(263,95,o),
(212,123,o),
(212,182,cs),
(212,224,o),
(273,280,o),
(351,339,cs),
(468,427,o),
(538,487,o),
(538,570,cs),
(538,663,o),
(454,730,o),
(351,730,cs),
(250,730,o),
(164,666,o),
(164,572,cs),
(164,522,o),
(191,456,o),
(260,356,cs),
(322,267,o),
(396,163,o),
(461,100,cs),
(515,48,o),
(525,38,o),
(563,0,c),
(728,0,l),
(687,42,o),
(574,160,o),
(533,206,cs),
(477,270,o),
(369,415,o),
(363,424,cs),
(316,500,o),
(294,545,o),
(294,572,cs),
(294,602,o),
(320,619,o),
(349,619,cs),
(381,619,o),
(407,603,o),
(407,570,cs),
(407,516,o),
(330,465,o),
(274,429,cs),
(168,361,o),
(80,283,o),
(80,184,cs),
(80,55,o),
(182,-16,o),
(322,-16,cs)
);
}
);
width = 788;
}
);
note = ampersand;
unicode = 38;
},
{
color = 1;
glyphname = copyright;
lastChange = "2023-02-18 10:09:17 +0000";
layers = (
{
layerId = m01;
shapes = (
{
closed = 1;
nodes = (
(636,-16,o),
(802,151,o),
(802,357,cs),
(802,563,o),
(635,730,o),
(431,730,cs),
(227,730,o),
(60,562,o),
(60,357,cs),
(60,152,o),
(226,-16,o),
(431,-16,cs)
);
},
{
closed = 1;
nodes = (
(518,134,o),
(580,182,o),
(612,267,c),
(542,293,l),
(523,236,o),
(489,211,o),
(436,211,cs),
(352,211,o),
(310,260,o),
(310,357,cs),
(310,451,o),
(353,501,o),
(436,501,cs),
(490,501,o),
(523,476,o),
(543,420,c),
(612,446,l),
(580,531,o),
(518,579,o),
(436,579,cs),
(313,579,o),
(235,492,o),
(235,357,cs),
(235,220,o),
(313,134,o),
(436,134,cs)
);
},
{
closed = 1;
nodes = (
(263,61,o),
(134,190,o),
(134,357,cs),
(134,523,o),
(263,654,o),
(431,654,cs),
(597,654,o),
(729,522,o),
(729,357,cs),
(729,192,o),
(597,61,o),
(431,61,cs)
);
}
);
width = 862;
},
{
layerId = m002;
shapes = (
{
closed = 1;
nodes = (
(689,-16,o),
(860,148,o),
(860,357,cs),
(860,561,o),
(693,727,o),
(481,727,cs),
(274,727,o),
(100,567,o),
(100,357,cs),
(100,150,o),
(271,-16,o),
(481,-16,cs)
);
},
{
closed = 1;
nodes = (
(576,128,o),
(644,192,o),
(680,275,c),
(576,312,l),
(548,263,o),
(520,229,o),
(487,229,cs),
(419,229,o),
(388,281,o),
(388,356,cs),
(388,428,o),
(419,481,o),
(487,481,cs),
(520,481,o),
(548,449,o),
(576,397,c),
(680,435,l),
(644,521,o),
(578,581,o),
(487,581,cs),
(351,581,o),
(268,491,o),
(268,356,cs),
(268,219,o),
(350,128,o),
(487,128,cs)
);
},
{
closed = 1;
nodes = (
(335,85,o),
(218,209,o),
(218,357,cs),
(218,504,o),
(336,628,o),
(481,628,cs),
(624,628,o),
(743,506,o),
(743,357,cs),
(743,209,o),
(626,85,o),
(481,85,cs)
);
}
);
width = 960;
}
);
note = copyright;
unicode = 169;
},
{
color = 1;
glyphname = bar;
lastChange = "2023-02-18 10:09:22 +0000";
layers = (
{
layerId = m01;
shapes = (
{
closed = 1;
nodes = (
(280,-91,l),
(280,907,l),
(200,907,l),
(200,-91,l)
);
}
);
width = 480;
},
{
layerId = m002;
shapes = (
{
closed = 1;
nodes = (
(334,-91,l),
(334,907,l),
(200,907,l),
(200,-91,l)
);
}
);
width = 534;
}
);
note = bar;
unicode = 124;
},
{
color = 1;
glyphname = dollar;
lastChange = "2023-02-18 09:41:35 +0000";
layers = (
{
layerId = m01;
shapes = (
{
closed = 1;
nodes = (
(431,-6,o),
(561,62,o),
(561,188,cs),
(561,312,o),
(436,360,o),
(316,406,cs),
(222,442,o),
(159,480,o),
(159,545,cs),
(159,609,o),
(221,658,o),
(317,658,cs),
(404,658,o),
(454,617,o),
(477,549,c),
(546,549,l),
(524,669,o),
(424,724,o),
(315,724,cs),
(195,724,o),
(88,658,o),
(88,542,cs),
(88,429,o),
(189,381,o),
(311,331,cs),
(402,294,o),
(490,257,o),
(490,185,cs),
(490,115,o),
(408,60,o),
(307,60,cs),
(219,60,o),
(155,101,o),
(139,169,c),
(70,169,l),
(92,48,o),
(204,-6,o),
(311,-6,cs)
);
},
{
closed = 1;
nodes = (
(352,-104,l),
(352,830,l),
(285,830,l),
(285,-104,l)
);
}
);
width = 631;
},
{
layerId = m002;
shapes = (
{
closed = 1;
nodes = (
(482,-18,o),
(604,51,o),
(604,195,cs),
(604,332,o),
(463,386,o),
(342,429,cs),
(254,460,o),
(213,493,o),
(213,544,cs),
(213,594,o),
(251,630,o),
(340,630,cs),
(421,630,o),
(459,600,o),
(483,526,c),
(593,526,l),
(575,664,o),
(478,736,o),
(336,736,cs),
(204,736,o),
(98,654,o),
(98,540,cs),
(98,410,o),
(216,361,o),
(328,316,cs),
(426,277,o),
(489,240,o),
(489,192,cs),
(489,129,o),
(429,90,o),
(345,90,cs),
(259,90,o),
(215,117,o),
(196,193,c),
(80,193,l),
(97,67,o),
(188,-18,o),
(336,-18,cs)
);
},
{
closed = 1;
nodes = (
(404,-110,l),
(404,838,l),
(293,838,l),
(293,-110,l)
);
}
);
width = 684;
}
);
note = dollar;
unicode = 36;
},
{
color = 1;
glyphname = uni20B9.rupee;
lastChange = "2023-02-18 09:41:42 +0000";
layers = (
{
layerId = m01;
shapes = (
{
closed = 1;
nodes = (
(295,253,o),
(443,326,o),
(443,483,cs),
(443,606,o),
(351,665,o),
(266,692,c),
(266,642,l),
(574,642,l),
(574,714,l),
(67,714,l),
(67,642,l),
(185,642,ls),
(223,642,o),
(368,602,o),
(368,481,cs),
(368,375,o),
(258,316,o),
(99,316,c),
(60,253,l),
(458,-59,l),
(505,-1,l),
(142,281,l),
(142,246,l)
);
},
{
closed = 1;
nodes = (
(574,455,l),
(574,527,l),
(67,527,l),
(67,455,l)
);
}
);
width = 634;
},
{
layerId = m002;
shapes = (
{
closed = 1;
nodes = (
(333,220,o),
(505,297,o),
(505,470,cs),
(505,613,o),
(385,675,o),
(292,698,c),
(292,608,l),
(636,608,l),
(636,714,l),
(93,714,l),
(93,608,l),
(229,608,ls),
(265,608,o),
(394,573,o),
(394,469,cs),
(394,374,o),
(293,325,o),
(133,325,c),
(80,242,l),
(505,-84,l),
(575,0,l),
(168,309,l),
(168,220,l)
);
},
{
closed = 1;
nodes = (
(636,426,l),
(636,531,l),
(93,531,l),
(93,426,l)
);
}
);
width = 716;
}
);
note = uni20B9.rupee;
unicode = 8377;
},
{
color = 1;
glyphname = plus;
lastChange = "2023-02-10 10:17:13 +0000";
layers = (
{
layerId = m01;
shapes = (
{
closed = 1;
nodes = (
(570,323,l),
(570,403,l),
(40,403,l),
(40,323,l)
);
},
{
closed = 1;
nodes = (
(261,104,l),
(341,104,l),
(341,623,l),
(261,623,l)
);
}
);
width = 610;
},
{
layerId = m002;
shapes = (
{
closed = 1;
nodes = (
(602,310,l),
(602,420,l),
(40,420,l),
(40,310,l)
);
},
{
closed = 1;
nodes = (
(255,98,l),
(387,98,l),
(387,630,l),
(255,630,l)
);
}
);
width = 642;
}
);
note = plus;
unicode = 43;
},
{
color = 1;
glyphname = equal;
lastChange = "2023-02-10 12:11:10 +0000";
layers = (
{
layerId = m01;
shapes = (
{
closed = 1;
nodes = (
(580,439,l),
(580,511,l),
(50,511,l),
(50,439,l)
);
},
{
closed = 1;
nodes = (
(580,201,l),
(580,273,l),
(50,273,l),
(50,201,l)
);
}
);
width = 630;
},
{
layerId = m002;
shapes = (
{
closed = 1;
nodes = (
(612,399,l),
(612,529,l),
(50,529,l),
(50,399,l)
);
},
{
closed = 1;
nodes = (
(612,188,l),
(612,318,l),
(50,318,l),
(50,188,l)
);
}
);
width = 662;
}
);
note = equal;
unicode = 61;
},
{
color = 1;
glyphname = greater;
lastChange = "2023-02-18 10:09:33 +0000";
layers = (
{
layerId = m01;
shapes = (
{
closed = 1;
nodes = (
(546,324,l),
(546,404,l),
(50,614,l),
(50,530,l),
(533,330,l),
(533,392,l),
(50,198,l),
(50,113,l)
);
}
);
width = 596;
},
{
layerId = m002;
shapes = (
{
closed = 1;
nodes = (
(578,313,l),
(578,399,l),
(45,631,l),
(45,498,l),
(454,329,l),
(454,377,l),
(45,215,l),
(45,82,l)
);
}
);
width = 623;
}
);
note = greater;
unicode = 62;
},
{
color = 1;
glyphname = asciitilde;
lastChange = "2023-02-18 09:42:05 +0000";
layers = (
{
layerId = m01;
shapes = (
{
closed = 1;
nodes = (
(578,244,o),
(634,338,o),
(637,458,c),
(582,458,l),
(571,375,o),
(525,320,o),
(476,320,cs),
(450,320,o),
(424,335,o),
(401,369,cs),
(362,427,o),
(316,480,o),
(219,480,cs),
(111,480,o),
(54,380,o),
(50,261,c),
(105,261,l),
(117,353,o),
(165,404,o),
(220,404,cs),
(260,404,o),
(303,378,o),
(339,322,cs),
(362,286,o),
(400,244,o),
(473,244,cs)
);
}
);
width = 687;
},
{
layerId = m002;
shapes = (
{
closed = 1;
nodes = (
(594,224,o),
(652,339,o),
(652,478,c),
(579,478,l),
(573,394,o),
(532,340,o),
(481,340,cs),
(441,340,o),
(416,371,o),
(388,406,cs),
(352,450,o),
(311,500,o),
(224,500,cs),
(105,500,o),
(45,378,o),
(45,241,c),
(118,241,l),
(125,335,o),
(168,384,o),
(225,384,cs),
(275,384,o),
(304,349,o),
(333,312,cs),
(366,270,o),
(404,224,o),
(478,224,cs)
);
}
);
width = 697;
}
);
note = asciitilde;
unicode = 126;
},
{
color = 1;
glyphname = asciicircum;
lastChange = "2023-02-10 10:49:54 +0000";
layers = (
{
layerId = m01;
shapes = (
{
closed = 1;
nodes = (
(107,455,l),
(242,704,l),
(188,704,l),
(324,455,l),
(401,455,l),
(254,714,l),
(176,714,l),
(30,455,l)
);
}
);
width = 431;
},
{
layerId = m002;
shapes = (
{
closed = 1;
nodes = (
(147,455,l),
(282,704,l),
(208,704,l),
(344,455,l),
(461,455,l),
(314,714,l),
(176,714,l),
(30,455,l)
);
}
);
width = 491;
}
);
note = asciicircum;
unicode = 94;
},
{
color = 1;
glyphname = percent;
lastChange = "2023-02-10 10:58:47 +0000";
layers = (
{
layerId = m01;
shapes = (
{
closed = 1;
nodes = (
(292,94,l),
(736,816,l),
(652,816,l),
(208,94,l)
);
},
{
closed = 1;
nodes = (
(352,467,o),
(430,548,o),
(430,647,cs),
(430,746,o),
(351,826,o),
(255,826,cs),
(157,826,o),
(80,748,o),
(80,647,cs),
(80,547,o),
(156,467,o),
(255,467,cs)
);
},
{
closed = 1;
nodes = (
(196,536,o),
(151,586,o),
(151,647,cs),
(151,708,o),
(196,758,o),
(255,758,cs),
(314,758,o),
(360,708,o),
(360,647,cs),
(360,586,o),
(314,536,o),
(255,536,cs)
);
},
{
closed = 1;
nodes = (
(794,85,o),
(871,164,o),
(871,264,cs),
(871,363,o),
(796,444,o),
(697,444,cs),
(598,444,o),
(523,363,o),
(523,264,cs),
(523,165,o),
(599,85,o),
(697,85,cs)
);
},
{
closed = 1;
nodes = (
(638,153,o),
(593,203,o),
(593,264,cs),
(593,323,o),
(638,376,o),
(697,376,cs),
(756,376,o),
(802,323,o),
(802,264,cs),
(802,203,o),
(755,153,o),
(697,153,cs)
);
}
);
width = 951;
},
{
layerId = m002;
shapes = (
{
closed = 1;
nodes = (
(316,89,l),
(766,822,l),
(644,822,l),
(193,89,l)
);
},
{
closed = 1;
nodes = (
(372,451,o),
(457,538,o),
(457,641,cs),
(457,746,o),
(372,831,o),
(268,831,cs),
(164,831,o),
(80,746,o),
(80,641,cs),
(80,537,o),
(164,451,o),
(268,451,cs)
);
},
{
closed = 1;
nodes = (
(220,549,o),
(185,590,o),
(185,641,cs),
(185,692,o),
(220,734,o),
(268,734,cs),
(315,734,o),
(352,692,o),
(352,641,cs),
(352,590,o),
(316,549,o),
(268,549,cs)
);
},
{
closed = 1;
nodes = (
(801,80,o),
(885,165,o),
(885,269,cs),
(885,371,o),
(805,461,o),
(697,461,cs),
(593,461,o),
(510,374,o),
(510,269,cs),
(510,163,o),
(596,80,o),
(697,80,cs)
);
},
{
closed = 1;
nodes = (
(650,178,o),
(615,218,o),
(615,269,cs),
(615,321,o),
(650,363,o),
(697,363,cs),
(745,363,o),
(782,321,o),
(782,269,cs),
(782,218,o),
(746,178,o),
(697,178,cs)
);
}
);
width = 965;
}
);
note = percent;
unicode = 37;
},
{
color = 1;
glyphname = uni2219;
lastChange = "2023-02-10 10:51:16 +0000";
layers = (
{
layerId = m01;
shapes = (
{
closed = 1;
nodes = (
(184,355,l),
(184,465,l),
(80,465,l),
(80,355,l)
);
}
);
width = 264;
},
{
layerId = m002;
shapes = (
{
closed = 1;
nodes = (
(256,320,l),
(256,496,l),
(80,496,l),
(80,320,l)
);
}
);
width = 336;
}
);
note = uni2219;
unicode = 8729;
},
{
color = 1;
glyphname = uni25CC;
lastChange = "2023-02-10 10:51:39 +0000";
layers = (
{
anchors = (
{
name = bottom;
pos = (349,56);
},
{
name = top;
pos = (355,638);
}
);
layerId = m01;
shapes = (
{
closed = 1;
nodes = (
(553,491,o),
(571,507,o),
(571,531,cs),
(571,549,o),
(553,569,o),
(534,569,cs),
(512,569,o),
(496,549,o),
(496,531,cs),
(496,507,o),
(512,491,o),
(534,491,cs)
);
},
{
closed = 1;
nodes = (
(171,178,o),
(188,194,o),
(188,216,cs),
(188,239,o),
(171,253,o),
(150,253,cs),
(129,253,o),
(113,239,o),
(113,216,cs),
(113,194,o),
(129,178,o),
(150,178,cs)
);
},
{
closed = 1;
nodes = (
(272,103,o),
(288,117,o),
(288,141,cs),
(288,163,o),
(272,177,o),
(253,177,cs),
(230,177,o),
(213,163,o),
(213,141,cs),
(213,117,o),
(230,103,o),
(253,103,cs)
);
},
{
closed = 1;
nodes = (
(120,295,o),
(137,311,o),
(137,332,cs),
(137,356,o),
(120,369,o),
(98,369,cs),
(76,369,o),
(60,356,o),
(60,332,cs),
(60,311,o),
(76,295,o),
(98,295,cs)
);
},
{
closed = 1;
nodes = (
(402,86,o),
(417,102,o),
(417,125,cs),
(417,146,o),
(402,163,o),
(379,163,cs),
(357,163,o),
(342,146,o),
(342,125,cs),
(342,102,o),
(357,86,o),
(379,86,cs)
);
},
{
closed = 1;
nodes = (
(133,421,o),
(150,436,o),
(150,459,cs),
(150,483,o),
(133,497,o),
(113,497,cs),
(90,497,o),
(76,483,o),
(76,459,cs),
(76,436,o),
(90,421,o),
(113,421,cs)
);
},
{
closed = 1;
nodes = (
(523,141,o),
(537,156,o),
(537,177,cs),
(537,200,o),
(523,216,o),
(499,216,cs),
(478,216,o),
(463,200,o),
(463,177,cs),
(463,156,o),
(478,141,o),
(499,141,cs)
);
},
{
closed = 1;
nodes = (
(214,532,o),
(230,546,o),
(230,570,cs),
(230,590,o),
(214,609,o),
(193,609,cs),
(170,609,o),
(154,590,o),
(154,570,cs),
(154,546,o),
(170,532,o),
(193,532,cs)
);
},
{
closed = 1;
nodes = (
(594,238,o),
(610,255,o),
(610,276,cs),
(610,299,o),
(594,313,o),
(572,313,cs),
(552,313,o),
(535,299,o),
(535,276,cs),
(535,255,o),
(552,238,o),
(572,238,cs)
);
},
{
closed = 1;
nodes = (
(334,573,o),
(349,590,o),
(349,612,cs),
(349,633,o),
(334,649,o),
(313,649,cs),
(289,649,o),
(275,633,o),
(275,612,cs),
(275,590,o),
(289,573,o),
(313,573,cs)
);
},
{
closed = 1;
nodes = (
(606,373,o),
(621,387,o),
(621,410,cs),
(621,434,o),
(606,448,o),
(583,448,cs),
(562,448,o),
(546,434,o),
(546,410,cs),
(546,387,o),
(562,373,o),
(583,373,cs)
);
},
{
closed = 1;
nodes = (
(461,560,o),
(475,576,o),
(475,597,cs),
(475,618,o),
(461,635,o),
(440,635,cs),
(416,635,o),
(400,618,o),
(400,597,cs),
(400,576,o),
(416,560,o),
(440,560,cs)
);
}
);
width = 681;
},
{
anchors = (
{
name = bottom;
pos = (349,56);
},
{
name = top;
pos = (355,638);
}
);
layerId = m002;
shapes = (
{
closed = 1;
nodes = (
(553,491,o),
(571,507,o),
(571,531,cs),
(571,549,o),
(553,569,o),
(534,569,cs),
(512,569,o),
(496,549,o),
(496,531,cs),
(496,507,o),
(512,491,o),
(534,491,cs)
);
},
{
closed = 1;
nodes = (
(171,178,o),
(188,194,o),
(188,216,cs),
(188,239,o),
(171,253,o),
(150,253,cs),
(129,253,o),
(113,239,o),
(113,216,cs),
(113,194,o),
(129,178,o),
(150,178,cs)
);
},
{
closed = 1;
nodes = (
(272,103,o),
(288,117,o),
(288,141,cs),
(288,163,o),
(272,177,o),
(253,177,cs),
(230,177,o),
(213,163,o),
(213,141,cs),
(213,117,o),
(230,103,o),
(253,103,cs)
);
},
{
closed = 1;
nodes = (
(120,295,o),
(137,311,o),
(137,332,cs),
(137,356,o),
(120,369,o),
(98,369,cs),
(76,369,o),
(60,356,o),
(60,332,cs),
(60,311,o),
(76,295,o),
(98,295,cs)
);
},
{
closed = 1;
nodes = (
(402,86,o),
(417,102,o),
(417,125,cs),
(417,146,o),
(402,163,o),
(379,163,cs),
(357,163,o),
(342,146,o),
(342,125,cs),
(342,102,o),
(357,86,o),
(379,86,cs)
);
},
{
closed = 1;
nodes = (
(133,421,o),
(150,436,o),
(150,459,cs),
(150,483,o),
(133,497,o),
(113,497,cs),
(90,497,o),
(76,483,o),
(76,459,cs),
(76,436,o),
(90,421,o),
(113,421,cs)
);
},
{
closed = 1;
nodes = (
(523,141,o),
(537,156,o),
(537,177,cs),
(537,200,o),
(523,216,o),
(499,216,cs),
(478,216,o),
(463,200,o),
(463,177,cs),
(463,156,o),
(478,141,o),
(499,141,cs)
);
},
{
closed = 1;
nodes = (
(214,532,o),
(230,546,o),
(230,570,cs),
(230,590,o),
(214,609,o),
(193,609,cs),
(170,609,o),
(154,590,o),
(154,570,cs),
(154,546,o),
(170,532,o),
(193,532,cs)
);
},
{
closed = 1;
nodes = (
(594,238,o),
(610,255,o),
(610,276,cs),
(610,299,o),
(594,313,o),
(572,313,cs),
(552,313,o),
(535,299,o),
(535,276,cs),
(535,255,o),
(552,238,o),
(572,238,cs)
);
},
{
closed = 1;
nodes = (
(334,573,o),
(349,590,o),
(349,612,cs),
(349,633,o),
(334,649,o),
(313,649,cs),
(289,649,o),
(275,633,o),
(275,612,cs),
(275,590,o),
(289,573,o),
(313,573,cs)
);
},
{
closed = 1;
nodes = (
(606,373,o),
(621,387,o),
(621,410,cs),
(621,434,o),
(606,448,o),
(583,448,cs),
(562,448,o),
(546,434,o),
(546,410,cs),
(546,387,o),
(562,373,o),
(583,373,cs)
);
},
{
closed = 1;
nodes = (
(461,560,o),
(475,576,o),
(475,597,cs),
(475,618,o),
(461,635,o),
(440,635,cs),
(416,635,o),
(400,618,o),
(400,597,cs),
(400,576,o),
(416,560,o),
(440,560,cs)
);
}
);
width = 681;
}
);
note = uni25CC;
unicode = 9676;
},
{
color = 1;
glyphname = "muhor-nagmundari";
lastChange = "2023-02-19 02:14:33 +0000";
layers = (
{
anchors = (
{
name = _vsign;
pos = (1,714);
}
);
layerId = m01;
shapes = (
{
closed = 1;
nodes = (
(37,911,o),
(66,940,o),
(66,977,cs),
(66,1013,o),
(37,1042,o),
(1,1042,cs),
(-36,1042,o),
(-65,1013,o),
(-65,977,cs),
(-65,940,o),
(-36,911,o),
(1,911,cs)
);
}
);
width = 0;
},
{
anchors = (
{
name = _vsign;
pos = (95,714);
}
);
layerId = m002;
shapes = (
{
closed = 1;
nodes = (
(52,883,o),
(94,925,o),
(94,978,cs),
(94,1029,o),
(52,1071,o),
(1,1071,cs),
(-52,1071,o),
(-94,1029,o),
(-94,978,cs),
(-94,925,o),
(-52,883,o),
(1,883,cs)
);
}
);
width = 0;
}
);
unicode = 124140;
},
{
color = 1;
glyphname = "toyor-nagmundari";
lastChange = "2023-02-19 02:16:20 +0000";
layers = (
{
anchors = (
{
name = _vsign;
pos = (0,714);
}
);
layerId = m01;
shapes = (
{
closed = 1;
nodes = (
(162,990,l),
(120,1032,l),
(-42,870,l),
(0,828,l)
);
}
);
width = 0;
},
{
anchors = (
{
name = _vsign;
pos = (1,714);
}
);
layerId = m002;
shapes = (
{
closed = 1;
nodes = (
(209,999,l),
(127,1073,l),
(-82,864,l),
(0,790,l)
);
}
);
width = 0;
}
);
unicode = 124141;
},
